<?xml version="1.0" encoding="utf-8"?>
<!-- Generator: Adobe Illustrator 21.1.0, SVG Export Plug-In . SVG Version: 6.00 Build 0)  -->
<svg version="1.1" xmlns="http://www.w3.org/2000/svg" xmlns:xlink="http://www.w3.org/1999/xlink" x="0px" y="0px"
	 viewBox="0 0 97.5 61.1" style="enable-background:new 0 0 97.5 61.1;" xml:space="preserve">
<style type="text/css">
	.st0{fill:#FFFFFF;}
	.st1{fill:none;stroke:#6D6E71;stroke-linecap:round;stroke-linejoin:round;stroke-miterlimit:10;}
	.st2{fill:none;stroke:#BCBEC0;stroke-linecap:round;stroke-linejoin:round;stroke-miterlimit:10;}
	.st3{fill:none;stroke:#E6E7E8;stroke-width:6;stroke-linecap:round;stroke-linejoin:round;stroke-miterlimit:10;}
	.st4{fill:#79AD36;}
	.st5{fill:#FFFFFF;stroke:#79AD36;stroke-linecap:round;stroke-linejoin:round;stroke-miterlimit:10;}
	.st6{fill:none;stroke:#79AD36;stroke-linecap:round;stroke-linejoin:round;stroke-miterlimit:10;}
	.st7{fill:none;stroke:#6D6E71;stroke-width:1.0099;stroke-linecap:round;stroke-linejoin:round;stroke-miterlimit:10;}
	.st8{fill:none;stroke:#BCBEC0;stroke-width:1.0099;stroke-linecap:round;stroke-linejoin:round;stroke-miterlimit:10;}
	.st9{fill:#E6E7E8;}
	.st10{fill:#FFFFFF;stroke:#6D6E71;stroke-linecap:round;stroke-linejoin:round;stroke-miterlimit:10;}
	.st11{fill:#FFFFFF;stroke:#6D6E71;stroke-miterlimit:10;}
	.st12{fill:none;stroke:#6D6E71;stroke-miterlimit:10;}
	.st13{fill:url(#SVGID_1_);}
	.st14{fill:url(#SVGID_2_);}
	.st15{fill:#EDEDED;}
	.st16{fill:#404041;}
	.st17{fill:#878789;}
	.st18{fill:#F5E990;}
	.st19{fill:#E81E79;}
	.st20{fill:#7E86C0;}
	.st21{fill:#587D27;}
	.st22{fill:#EF7B20;}
	.st23{fill:none;stroke:#D1D3D4;stroke-width:0.9294;stroke-linecap:round;stroke-linejoin:round;stroke-miterlimit:10;}
	.st24{fill:none;stroke:#6D6E71;stroke-width:0.9294;stroke-linecap:round;stroke-linejoin:round;stroke-miterlimit:10;}
	.st25{fill:none;stroke:#6D6E71;stroke-width:0.9294;stroke-miterlimit:10;}
	.st26{fill:none;stroke:#6D6E71;stroke-width:1.0622;stroke-linecap:round;stroke-linejoin:round;stroke-miterlimit:10;}
	.st27{fill:#D1D3D4;}
	.st28{fill:#6D6E71;}
	.st29{fill:none;stroke:#404041;stroke-width:2.7989;stroke-linecap:round;stroke-miterlimit:10;}
	.st30{fill:none;stroke:#404041;stroke-width:2.7989;stroke-linecap:round;stroke-linejoin:round;stroke-miterlimit:10;}
	.st31{fill:#E1FFB8;}
	.st32{fill:#F1F2F2;}
	.st33{clip-path:url(#SVGID_4_);fill:#3E82F1;}
	.st34{clip-path:url(#SVGID_6_);fill:#32A753;}
	.st35{clip-path:url(#SVGID_8_);fill:#F9BB00;}
	.st36{clip-path:url(#SVGID_10_);fill:#E74133;}
	.st37{clip-path:url(#SVGID_12_);fill:#79AD36;}
	.st38{clip-path:url(#SVGID_14_);fill:#C3EB8E;}
	.st39{clip-path:url(#SVGID_16_);fill:#E6E7E8;}
	.st40{clip-path:url(#SVGID_18_);fill:#BCBEC0;}
	.st41{clip-path:url(#SVGID_20_);fill:#79AD36;}
	.st42{clip-path:url(#SVGID_22_);fill:#C3EB8E;}
	.st43{clip-path:url(#SVGID_24_);fill:#E6E7E8;}
	.st44{clip-path:url(#SVGID_26_);fill:#BCBEC0;}
	.st45{clip-path:url(#SVGID_28_);fill:#79AD36;}
	.st46{clip-path:url(#SVGID_30_);fill:#C3EB8E;}
	.st47{clip-path:url(#SVGID_32_);fill:#E6E7E8;}
	.st48{clip-path:url(#SVGID_34_);fill:#BCBEC0;}
	.st49{fill:none;stroke:#BCBEC0;stroke-width:1;stroke-linecap:round;stroke-linejoin:round;stroke-miterlimit:10;}
	.st50{fill:none;stroke:#6D6E71;stroke-width:1;stroke-linecap:round;stroke-linejoin:round;stroke-miterlimit:10;}
	.st51{clip-path:url(#SVGID_36_);fill:#79AD36;}
	.st52{clip-path:url(#SVGID_38_);fill:#C3EB8E;}
	.st53{clip-path:url(#SVGID_40_);fill:#E6E7E8;}
	.st54{clip-path:url(#SVGID_42_);fill:#BCBEC0;}
	.st55{clip-path:url(#SVGID_44_);fill:#79AD36;}
	.st56{clip-path:url(#SVGID_46_);fill:#C3EB8E;}
	.st57{clip-path:url(#SVGID_48_);fill:#E6E7E8;}
	.st58{clip-path:url(#SVGID_50_);fill:#BCBEC0;}
	.st59{clip-path:url(#SVGID_52_);fill:#79AD36;}
	.st60{clip-path:url(#SVGID_54_);fill:#C3EB8E;}
	.st61{clip-path:url(#SVGID_56_);fill:#E6E7E8;}
	.st62{clip-path:url(#SVGID_58_);fill:#BCBEC0;}
	.st63{clip-path:url(#SVGID_60_);fill:#79AD36;}
	.st64{clip-path:url(#SVGID_62_);fill:#C3EB8E;}
	.st65{clip-path:url(#SVGID_64_);fill:#E6E7E8;}
	.st66{clip-path:url(#SVGID_66_);fill:#BCBEC0;}
	.st67{fill:none;}
	.st68{clip-path:url(#SVGID_68_);fill:#79AD36;}
	.st69{clip-path:url(#SVGID_70_);fill:#C3EB8E;}
	.st70{clip-path:url(#SVGID_72_);fill:#E6E7E8;}
	.st71{clip-path:url(#SVGID_74_);fill:#BCBEC0;}
	.st72{fill:none;stroke:#DFEDC8;stroke-width:6;stroke-linecap:round;stroke-linejoin:round;stroke-miterlimit:10;}
	.st73{fill:none;stroke:#E81E79;stroke-linecap:round;stroke-linejoin:round;stroke-miterlimit:10;}
	.st74{fill:none;stroke:#EDD6E3;stroke-width:6;stroke-linecap:round;stroke-linejoin:round;stroke-miterlimit:10;}
	.st75{fill:none;stroke:#6D6E71;stroke-width:1.5;stroke-linecap:round;stroke-linejoin:round;stroke-miterlimit:10;}
	.st76{fill:#FFF8D4;}
	.st77{fill:none;stroke:#EDD6E3;stroke-width:9;stroke-linecap:round;stroke-linejoin:round;stroke-miterlimit:10;}
	.st78{fill:none;stroke:#E6E7E8;stroke-width:9;stroke-linecap:round;stroke-linejoin:round;stroke-miterlimit:10;}
	.st79{fill:none;stroke:#DFEDC8;stroke-width:9;stroke-linecap:round;stroke-linejoin:round;stroke-miterlimit:10;}
	.st80{fill:none;stroke:#BCBEC0;stroke-width:1.5;stroke-linecap:round;stroke-linejoin:round;stroke-miterlimit:10;}
	.st81{fill:none;stroke:#79AD36;stroke-width:1.5;stroke-linecap:round;stroke-linejoin:round;stroke-miterlimit:10;}
	.st82{fill-rule:evenodd;clip-rule:evenodd;fill:none;stroke:#BCBEC0;stroke-width:1.5;stroke-miterlimit:10;}
	.st83{fill:none;stroke:#E81E79;stroke-width:1.5;stroke-linecap:round;stroke-linejoin:round;stroke-miterlimit:10;}
	.st84{fill:#C3EB8E;}
	.st85{fill:#BCBEC0;}
	.st86{fill:#DFEDC8;}
	.st87{fill:#F4DB47;}
	.st88{fill:#F45BA7;}
	.st89{fill:#EDD6E3;}
	.st90{clip-path:url(#SVGID_76_);fill:#BCBEC0;}
	.st91{clip-path:url(#SVGID_78_);fill:#BCBEC0;}
	.st92{clip-path:url(#SVGID_80_);fill:#BCBEC0;}
	.st93{clip-path:url(#SVGID_82_);fill:#BCBEC0;}
	.st94{fill:#3E3E3F;}
	.st95{fill:none;stroke:#F1F2F2;stroke-width:6;stroke-linecap:round;stroke-linejoin:round;stroke-miterlimit:10;}
	.st96{fill-rule:evenodd;clip-rule:evenodd;fill:#E6E7E8;}
	.st97{fill:none;stroke:#C3EB8E;stroke-linecap:round;stroke-linejoin:round;stroke-miterlimit:10;}
	.st98{fill:#F4E06C;}
	.st99{fill:none;stroke:#F4E06C;stroke-linecap:round;stroke-linejoin:round;stroke-miterlimit:10;}
	.st100{fill:none;stroke:#FFF8D4;stroke-width:6;stroke-linecap:round;stroke-linejoin:round;stroke-miterlimit:10;}
	.st101{fill:none;stroke:#F4DB47;stroke-linecap:round;stroke-linejoin:round;stroke-miterlimit:10;}
	.st102{fill:#FFDA00;}
	.st103{fill:none;stroke:#FFDA00;stroke-linecap:round;stroke-linejoin:round;stroke-miterlimit:10;}
</style>
<g id="Guidelines">
</g>
<g id="Layer_3">
</g>
<g id="Your_Icons">
	<g>
		<g>
			<path class="st9" d="M71.3,55.7c-0.8,0-1.5-0.3-2.1-0.9c-1.2-1.2-1.2-3.1,0-4.2l10.5-10.5c1.2-1.2,3.1-1.2,4.2,0
				c1.2,1.2,1.2,3.1,0,4.2L73.4,54.8C72.8,55.4,72.1,55.7,71.3,55.7z"/>
		</g>
		<g>
			<path class="st9" d="M93.2,29.8L93.2,29.8c-0.8,0-1.6-0.3-2.1-0.9l-2.2-2.2c-1.2-1.2-1.2-3.1,0-4.2c1.2-1.2,3.1-1.2,4.2,0
				l0.3,0.3c1-0.4,2.3-0.2,3.2,0.6c1.2,1.1,1.2,3,0.1,4.2c0,0-0.1,0.1-0.1,0.1L95.3,29C94.8,29.5,94,29.8,93.2,29.8z"/>
		</g>
		<g>
			<path class="st9" d="M53.6,54c-0.2,0-0.4,0-0.6-0.1c-1.6-0.3-2.7-1.9-2.3-3.6l0.6-3c0.3-1.6,1.9-2.7,3.6-2.3
				c1.6,0.3,2.7,1.9,2.3,3.6l-0.6,3C56.3,53,55,54,53.6,54z"/>
		</g>
		<g>
			<path class="st76" d="M61.8,29.5c-1.7,0-3-1.3-3-3v-8.1h-6.1c-1.7,0-3-1.3-3-3s1.3-3,3-3h9.1c1.7,0,3,1.3,3,3v11.1
				C64.8,28.2,63.5,29.5,61.8,29.5z"/>
		</g>
		<g>
			<path class="st76" d="M43,8.8h-0.7c-1.7,0-3-1.3-3-3s1.3-3,3-3H43c1.7,0,3,1.3,3,3S44.6,8.8,43,8.8z"/>
		</g>
		<g>
			<path class="st76" d="M6.7,37.5c-1.7,0-3-1.3-3-3V22c0-1.7,1.3-3,3-3s3,1.3,3,3v12.5C9.7,36.2,8.3,37.5,6.7,37.5z"/>
		</g>
		<g>
			<g>
				<path class="st102" d="M5.8,9.9c-0.9,0-1.7-0.8-1.7-1.7s0.8-1.7,1.7-1.7c0.9,0,1.7,0.8,1.7,1.7S6.8,9.9,5.8,9.9z M5.8,7.5
					c-0.4,0-0.7,0.3-0.7,0.7s0.3,0.7,0.7,0.7s0.7-0.3,0.7-0.7S6.2,7.5,5.8,7.5z"/>
			</g>
			<g>
				<path class="st102" d="M11.2,9.9c-0.9,0-1.7-0.8-1.7-1.7s0.8-1.7,1.7-1.7s1.7,0.8,1.7,1.7S12.1,9.9,11.2,9.9z M11.2,7.5
					c-0.4,0-0.7,0.3-0.7,0.7s0.3,0.7,0.7,0.7s0.7-0.3,0.7-0.7S11.6,7.5,11.2,7.5z"/>
			</g>
			<g>
				<path class="st102" d="M16.5,9.9c-0.9,0-1.7-0.8-1.7-1.7s0.8-1.7,1.7-1.7c0.9,0,1.7,0.8,1.7,1.7S17.5,9.9,16.5,9.9z M16.5,7.5
					c-0.4,0-0.7,0.3-0.7,0.7s0.3,0.7,0.7,0.7s0.7-0.3,0.7-0.7S16.9,7.5,16.5,7.5z"/>
			</g>
			<g>
				<path class="st102" d="M61.8,11.1H22.5c-0.3,0-0.5-0.2-0.5-0.5V5.8c0-0.3,0.2-0.5,0.5-0.5h21.1c0.3,0,0.5,0.2,0.5,0.5
					s-0.2,0.5-0.5,0.5H23v3.8h38.4V6.3h-9.7c-0.3,0-0.5-0.2-0.5-0.5s0.2-0.5,0.5-0.5h10.2c0.3,0,0.5,0.2,0.5,0.5v4.8
					C62.3,10.9,62.1,11.1,61.8,11.1z"/>
			</g>
			<g>
				<path class="st102" d="M50,6.3h-0.7c-0.3,0-0.5-0.2-0.5-0.5s0.2-0.5,0.5-0.5H50c0.3,0,0.5,0.2,0.5,0.5S50.3,6.3,50,6.3z"/>
			</g>
			<g>
				<path class="st102" d="M0.5,44C0.2,44,0,43.8,0,43.5V30.7c0-0.3,0.2-0.5,0.5-0.5S1,30.4,1,30.7v12.8C1,43.8,0.8,44,0.5,44z"/>
			</g>
			<g>
				<path class="st102" d="M0.5,28.8c-0.3,0-0.5-0.2-0.5-0.5s0.2-0.5,0.5-0.5S1,27.9,1,28.2v0.1C1,28.6,0.8,28.8,0.5,28.8z"/>
			</g>
			<g>
				<path class="st102" d="M66,34.8c-0.3,0-0.5-0.2-0.5-0.5V1H1v23.6c0,0.3-0.2,0.5-0.5,0.5S0,24.9,0,24.6V0.5C0,0.2,0.2,0,0.5,0H66
					c0.3,0,0.5,0.2,0.5,0.5v33.8C66.5,34.6,66.3,34.8,66,34.8z"/>
			</g>
			<g>
				<path class="st102" d="M4.7,41c-0.3,0-0.5-0.2-0.5-0.5V15.4c0-0.3,0.2-0.5,0.5-0.5h57.2c0.3,0,0.5,0.2,0.5,0.5v23.1
					c0,0.3-0.2,0.5-0.5,0.5s-0.5-0.2-0.5-0.5V15.9H5.2v24.6C5.2,40.8,4.9,41,4.7,41z"/>
			</g>
		</g>
		<g>
			<path class="st28" d="M51.6,61.1c-0.1,0-0.2,0-0.3-0.1c-0.1-0.1-0.2-0.3-0.1-0.5l2.7-12.6c0-0.2,0.2-0.3,0.3-0.4
				c0.2-0.1,0.4,0,0.5,0.1l9.2,9.2c0.1,0.1,0.2,0.3,0.1,0.5c0,0.2-0.2,0.3-0.3,0.4l-11.9,3.4C51.7,61.1,51.6,61.1,51.6,61.1z
				 M54.6,49l-2.3,10.9l10.3-3L54.6,49z"/>
		</g>
		<g>
			<path class="st28" d="M59.4,41.4c-0.1,0-0.3,0-0.4-0.1c-0.2-0.2-0.2-0.5,0-0.7l0.8-0.8c0.2-0.2,0.5-0.2,0.7,0s0.2,0.5,0,0.7
				l-0.8,0.8C59.7,41.4,59.5,41.4,59.4,41.4z"/>
		</g>
		<g>
			<path class="st28" d="M66.5,56c-0.1,0-0.3,0-0.4-0.1L55.3,45c-0.2-0.2-0.2-0.5,0-0.7l2.1-2.1c0.2-0.2,0.5-0.2,0.7,0
				s0.2,0.5,0,0.7l-1.7,1.7l10.1,10.1l24.6-24.6L81,20.1L62.1,38.9c-0.2,0.2-0.5,0.2-0.7,0s-0.2-0.5,0-0.7L80.6,19
				c0.2-0.2,0.5-0.2,0.7,0l10.9,10.9c0.2,0.2,0.2,0.5,0,0.7L66.9,55.9C66.8,56,66.6,56,66.5,56z"/>
		</g>
		<g>
			<path class="st28" d="M94.2,28.3c-0.1,0-0.3,0-0.4-0.1L83,17.3c-0.2-0.2-0.2-0.5,0-0.7l1.2-1.2c0,0,0.1-0.1,0.1-0.1
				c0.6-0.6,1.3-0.8,2.1-0.8c1.8,0,4.2,1.4,6.5,3.7c1.3,1.3,5.5,5.9,2.9,8.6c0,0,0,0,0,0l-0.4-0.3l0.3,0.4l-1.2,1.2
				C94.5,28.3,94.3,28.3,94.2,28.3z M84.1,17l10.1,10.1l0.9-0.9c2-2.2-2-6.4-2.9-7.3c-2.2-2.2-4.3-3.5-5.8-3.5c-0.6,0-1,0.2-1.4,0.6
				c0,0-0.1,0.1-0.1,0.1L84.1,17z M95.5,26.6L95.5,26.6L95.5,26.6z"/>
		</g>
		<g>
			<path class="st85" d="M69.1,46.1c-0.1,0-0.3,0-0.4-0.1l-3.5-3.5c-0.2-0.2-0.2-0.5,0-0.7l4.6-4.6c0.2-0.2,0.5-0.2,0.7,0
				s0.2,0.5,0,0.7l-4.2,4.2l2.8,2.8l12.1-12.1L78.4,30l-2.6,2.6c-0.2,0.2-0.5,0.2-0.7,0s-0.2-0.5,0-0.7l3-3c0.2-0.2,0.5-0.2,0.7,0
				l3.5,3.5c0.2,0.2,0.2,0.5,0,0.7L69.5,46C69.4,46.1,69.3,46.1,69.1,46.1z"/>
		</g>
		<g>
			<path class="st85" d="M73.3,34.9c-0.1,0-0.3,0-0.4-0.1c-0.2-0.2-0.2-0.5,0-0.7l0.4-0.4c0.2-0.2,0.5-0.2,0.7,0s0.2,0.5,0,0.7
				l-0.4,0.4C73.5,34.8,73.4,34.9,73.3,34.9z"/>
		</g>
	</g>
</g>
</svg>
