<?xml version="1.0" encoding="UTF-8"?>
<svg width="132px" height="51px" viewBox="0 0 132 51" version="1.1" xmlns="http://www.w3.org/2000/svg" xmlns:xlink="http://www.w3.org/1999/xlink">
    <!-- Generator: Sketch 48.1 (47250) - http://www.bohemiancoding.com/sketch -->
    <title>Shape</title>
    <desc>Created with Sketch.</desc>
    <defs></defs>
    <g id="Mobile" stroke="none" stroke-width="1" fill="none" fill-rule="evenodd" transform="translate(-94.000000, -7773.000000)">
        <g id="ft-services" transform="translate(0.000000, 7647.000000)" fill="#D52F2F" fill-rule="nonzero">
            <g id="Fastly" transform="translate(94.000000, 126.000000)">
                <path d="M89.4691678,5.22470935 L89.4691678,39.5257941 L99.7724857,39.5257941 L99.7724857,34.2851652 L96.3680026,34.2851652 L96.3680026,0 L89.4683975,0.000770303129 L89.4691678,5.22470935 Z M0,34.2849084 L3.50231156,34.2849084 L3.50231156,17.7362295 L0,17.7362295 L0,13.1850219 L3.50231156,12.6090919 L3.50231156,8.00216567 C3.50231156,2.42183304 4.71682282,0 11.8339102,0 C13.3709217,0 15.1924318,0.226982655 16.7877296,0.514305722 L15.8420541,6.12390987 C14.7615756,5.95290258 14.2259582,5.92234722 13.5432128,5.92234722 C11.0358762,5.92234722 10.4019167,6.17269574 10.4019167,8.62225969 L10.4019167,12.6090919 L15.6076252,12.6090919 L15.6076252,17.7362295 L10.4019167,17.7362295 L10.4019167,34.2849084 L13.868024,34.2849084 L13.868024,39.5250238 L0,39.5263077 L0,34.2849084 Z M85.9596667,32.6287567 C84.880472,32.8565096 83.9363372,32.8290355 83.2535918,32.8457254 C80.4155383,32.9155662 80.6607515,31.9824724 80.6607515,29.3061825 L80.6607515,17.7362295 L86.0631441,17.7362295 L86.0631441,12.6090919 L80.6607515,12.6090919 L80.6607515,0 L73.7608896,0 L73.7608896,30.7368922 C73.7608896,36.7714469 75.2501423,39.5257941 81.7409733,39.5257941 C83.2779848,39.5257941 85.3904127,39.1303719 86.9854537,38.7888708 L85.9596667,32.6287567 Z M65.1481303,17.7269859 L65.1481303,16.8090413 C63.0608656,16.4282548 60.9882367,16.4228627 59.8638509,16.4228627 C56.6529707,16.4228627 56.2613999,18.1252326 56.2613999,19.0483125 C56.2613999,20.3542331 56.7071486,21.0600875 60.185324,21.8206335 C65.2698382,22.9622227 70.3764344,24.1531114 70.3764344,30.4577857 C70.3764344,36.4368786 67.2993302,39.5257941 60.822108,39.5257941 C56.487869,39.5257941 52.2820139,38.595268 49.0734446,37.7810575 L49.0734446,32.6287567 L54.298154,32.6287567 L54.2950728,33.5441336 C56.5433308,33.9783278 58.900972,33.934934 60.1314028,33.934934 C63.5564273,33.934934 64.110532,32.0936528 64.110532,31.1145975 C64.110532,29.7560396 63.1283955,29.1035928 59.9180289,28.4524299 C53.8698655,27.4191966 49.0695931,25.3540139 49.0695931,19.210333 C49.0695931,13.3950579 52.9591104,11.1139335 59.4363326,11.1139335 C63.8244928,11.1139335 67.1611892,11.794368 70.3715558,12.6090919 L70.3715558,17.7272427 L65.1481303,17.7272427 L65.1481303,17.7269859 Z M30.1969097,32.6130939 L30.1969097,31.8019647 L29.3701177,31.8019647 L29.3701177,32.6107829 C25.6672705,32.3950981 22.7051982,29.4199306 22.5118522,25.7109211 L23.3335088,25.7109211 L23.3335088,24.884129 L22.5162172,24.884129 C22.7357536,21.201053 25.6855011,18.2543868 29.3701177,18.0394722 L29.3701177,18.8523988 L30.1969097,18.8523988 L30.1969097,18.0371613 C33.8286322,18.2312777 36.7542435,21.0801154 37.0703245,24.6784581 L37.0703245,24.9154547 L36.2422487,24.9154547 L36.2422487,25.7422467 L37.0705813,25.7422467 L37.0705813,25.9682023 C36.7560408,29.5683424 33.829916,32.4189775 30.1969097,32.6130939 Z M43.9724973,32.6287567 L43.9678755,11.1586111 L37.0685272,11.1586111 L37.0685272,13.1721835 C35.623421,12.3050357 34.034582,11.703938 32.3773811,11.3974051 L32.4164098,11.3974051 L32.4164098,9.01511428 L33.2583511,9.01511428 L33.2583511,7.26293143 L26.3109872,7.26293143 L26.3109872,9.01511428 L27.1526717,9.01511428 L27.1526717,11.3979186 L27.2004305,11.3979186 C20.6015004,12.6124299 15.6009493,18.3909872 15.6009493,25.3411756 C15.6009493,33.1738745 21.950558,39.5234832 29.7830002,39.5234832 C32.3581089,39.5272248 34.8851803,38.8264642 37.0906092,37.4970725 L38.3333649,39.5260509 L45.6212028,39.5260509 L45.6212028,32.6290135 L43.9719838,32.6290135 L43.9724973,32.6287567 Z M117.234487,12.6090919 L131.465067,12.6090919 L131.465067,17.7313509 L128.063152,17.7313509 L119.336131,39.2022668 C116.835213,45.2334835 112.726417,50.9101041 106.470271,50.9101041 C104.931462,50.9101041 102.883226,50.7396103 101.463301,50.398366 L102.087503,44.1363151 C102.999029,44.3068089 104.192485,44.4187596 104.818998,44.4187596 C107.720473,44.4187596 110.992978,42.6211289 112.016967,39.4908737 L103.174144,17.7313509 L99.7724857,17.7313509 L99.7724857,12.6090919 L114.010255,12.6090919 L114.010255,17.7313509 L110.609367,17.7313509 L115.618905,30.056201 L120.628443,17.7313509 L117.234487,17.7313509 L117.234487,12.6090919 Z M33.4047087,22.2558548 L32.8796187,21.730508 L30.2130861,24.0542558 C30.0756003,24.0044282 29.9305203,23.9788003 29.784284,23.9785093 C29.0645641,23.9785093 28.4822149,24.5780619 28.4822149,25.3167826 C28.4822149,26.0567872 29.0645641,26.656083 29.7840272,26.656083 C30.5034904,26.656083 31.0871234,26.0567872 31.0871234,25.3167826 C31.0871234,25.1765875 31.0660684,25.0415276 31.0270397,24.9141709 L33.4047087,22.255598 L33.4047087,22.2558548 Z" id="Shape"></path>
            </g>
        </g>
    </g>
</svg>