<svg xmlns="http://www.w3.org/2000/svg" viewBox="0 0 760 268">
  <defs>
    <style>
      .cls-1 {
        isolation: isolate;
      }

      .cls-2 {
        fill: #f2f2f2;
      }

      .cls-12, .cls-3 {
        fill: #e6e6e6;
      }

      .cls-13, .cls-4 {
        fill: #ccc;
      }

      .cls-5 {
        fill: #4d4d4d;
      }

      .cls-22, .cls-6 {
        fill: #999;
      }

      .cls-7 {
        fill: #c2c2c2;
      }

      .cls-27, .cls-7 {
        opacity: 0.5;
      }

      .cls-8 {
        fill: #8a8a8a;
      }

      .cls-9 {
        fill: gray;
      }

      .cls-10 {
        fill: #b3b3b3;
      }

      .cls-11, .cls-28 {
        fill: #666;
      }

      .cls-12 {
        opacity: 0.6;
      }

      .cls-13, .cls-18 {
        opacity: 0.7;
      }

      .cls-13, .cls-18, .cls-22, .cls-28 {
        mix-blend-mode: multiply;
      }

      .cls-14, .cls-24, .cls-27 {
        fill: #fff;
      }

      .cls-14 {
        stroke: #ccc;
        stroke-width: 1.29px;
      }

      .cls-14, .cls-17 {
        stroke-linecap: round;
        stroke-linejoin: round;
      }

      .cls-15 {
        fill: #f5e0cd;
      }

      .cls-16 {
        fill: #e3cbb1;
      }

      .cls-17 {
        fill: none;
        stroke: #8c6239;
        stroke-width: 2.33px;
      }

      .cls-19 {
        fill: #8c6239;
      }

      .cls-20 {
        fill: #c69c6d;
      }

      .cls-21 {
        fill: #a67c52;
      }

      .cls-22, .cls-24, .cls-28 {
        opacity: 0.3;
      }

      .cls-23 {
        fill: #79ad36;
      }

      .cls-25 {
        fill: #ed1e79;
      }

      .cls-26 {
        fill: #c41964;
      }

      .cls-29 {
        fill: #f9f2b7;
      }

      @-moz-keyframes fadeIn {
        0% { opacity: 0; }
        10% { opacity: 1; }
        20% { opacity: 1; }
        21% { opacity: 0; }
        29% { opacity: 0; }
        30% { opacity: 1; }
        40% { opacity: 1; }
        41% { opacity: 0; }
        49% { opacity: 0; }
        50% { opacity: 1; }
        60% { opacity: 1; }
        61% { opacity: 0; }
        69% { opacity: 0; }
        70% { opacity: 1; }
        80% { opacity: 1; }
        81% { opacity: 0; }
        89% { opacity: 0; }
        90% { opacity: 1; }
        100% { opacity: 1; }
      }

      @-webkit-keyframes fadeIn {
        0% { opacity: 0; }
        10% { opacity: 1; }
        20% { opacity: 1; }
        21% { opacity: 0; }
        29% { opacity: 0; }
        30% { opacity: 1; }
        40% { opacity: 1; }
        41% { opacity: 0; }
        49% { opacity: 0; }
        50% { opacity: 1; }
        60% { opacity: 1; }
        61% { opacity: 0; }
        69% { opacity: 0; }
        70% { opacity: 1; }
        80% { opacity: 1; }
        81% { opacity: 0; }
        89% { opacity: 0; }
        90% { opacity: 1; }
        100% { opacity: 1; }
      }
      @-o-keyframes fadeIn{
          0% { opacity: 0; }
          10% { opacity: 1; }
          20% { opacity: 1; }
          21% { opacity: 0; }
          29% { opacity: 0; }
          30% { opacity: 1; }
          40% { opacity: 1; }
          41% { opacity: 0; }
          49% { opacity: 0; }
          50% { opacity: 1; }
          60% { opacity: 1; }
          61% { opacity: 0; }
          69% { opacity: 0; }
          70% { opacity: 1; }
          80% { opacity: 1; }
          81% { opacity: 0; }
          89% { opacity: 0; }
          90% { opacity: 1; }
          100% { opacity: 1; }
      }

      @keyframes fadeIn {
        0% { opacity: 0; }
        10% { opacity: 1; }
        20% { opacity: 1; }
        21% { opacity: 0; }
        29% { opacity: 0; }
        30% { opacity: 1; }
        40% { opacity: 1; }
        41% { opacity: 0; }
        49% { opacity: 0; }
        50% { opacity: 1; }
        60% { opacity: 1; }
        61% { opacity: 0; }
        69% { opacity: 0; }
        70% { opacity: 1; }
        80% { opacity: 1; }
        81% { opacity: 0; }
        89% { opacity: 0; }
        90% { opacity: 1; }
        100% { opacity: 1; }
      }

      .fade-in {
        /* make things invisible upon start */
        opacity: 0;
        -webkit-animation: fadeIn ease-out;
        -moz-animation: fadeIn ease-out;
        animation: fadeIn ease-out;

        /* makes sure that after animation is done we remain at the last keyframe value (opacity: 1)*/
        -webkit-animation-fill-mode: forwards;
        -moz-animation-fill-mode: forwards;
        animation-fill-mode: forwards;

        -webkit-animation-duration: 20s;
        -moz-animation-duration: 20s;
        animation-duration: 20s;

        -webkit-animation-iteration-count: 1;
        -moz-animation-iteration-count: 1;
        animation-iteration-count: 1;

      }

      .fade-in.pink {
        -webkit-animation-delay: .5s;
        -moz-animation-delay: .5s;
        animation-delay: .5s;
      }

      .fade-in.dot.one {
        -webkit-animation-delay: .5s;
        -moz-animation-delay: .5s;
        animation-delay: .5s;
      }

      .fade-in.dot.two {
        -webkit-animation-delay: .75s;
        -moz-animation-delay: .75s;
        animation-delay: .75s;
      }

      .fade-in.dot.three {
        -webkit-animation-delay: 1s;
        -moz-animation-delay: 1s;
        animation-delay: 1s;
      }

      .fade-in.gray {
        -webkit-animation-delay: 1.5s;
        -moz-animation-delay: 1.5s;
        animation-delay: 1.5s;
      }

      .fade-in.dot.five {
        -webkit-animation-delay: 1.75s;
        -moz-animation-delay: 1.75s;
        animation-delay: 1.75s;
      }
      .fade-in.dot.six {
        -webkit-animation-delay: 2s;
        -moz-animation-delay: 2s;
        animation-delay: 2s;
      }
      .fade-in.dot.seven {
        -webkit-animation-delay: 2.25s;
        -moz-animation-delay: 2.25s;
        animation-delay: 2.25s;
      }

      @-moz-document url-prefix() {
        .fade-in {
           opacity: 1;
        }
      }
    </style>
  </defs>
  <title>Hire_us_mobile2</title>
  <g class="cls-1">
    <g id="Layer_5" data-name="Layer 5">
      <g id="bg-mobile">
        <rect class="cls-2" x="0.5" width="759.5" height="268"/>
        <polygon class="cls-3" points="761 268 -0.45 268 761 0 761 268"/>
      </g>
      <g id="lik-mobile">
        <ellipse class="cls-4" cx="191.47" cy="218.15" rx="102.73" ry="27.17"/>
        <g>
          <rect class="cls-5" x="118.02" y="184.82" width="45.31" height="6.54" transform="translate(328.76 47.42) rotate(90)"/>
          <rect class="cls-5" x="213.73" y="184.82" width="45.31" height="6.54" transform="translate(424.48 -48.3) rotate(90)"/>
        </g>
        <g>
          <rect class="cls-5" x="183.11" y="188.53" width="5.42" height="7.92" rx="2.35" ry="2.35" transform="translate(371.64 384.98) rotate(-180)"/>
          <rect class="cls-5" x="162.53" y="190.42" width="5.42" height="7.92" rx="2.35" ry="2.35" transform="translate(330.47 388.75) rotate(180)"/>
          <rect class="cls-5" x="204.43" y="190.42" width="5.42" height="7.92" rx="2.35" ry="2.35" transform="translate(414.29 388.75) rotate(180)"/>
          <rect class="cls-6" x="183.26" y="178.99" width="5.12" height="15.57" rx="2.06" ry="2.06"/>
          <g>
            <rect class="cls-6" x="146.9" y="99.27" width="77.72" height="71.65" rx="16.67" ry="16.67" transform="translate(371.52 270.19) rotate(180)"/>
            <rect class="cls-7" x="159.34" y="104.64" width="52.85" height="48.72" rx="11.34" ry="11.34" transform="translate(371.52 258) rotate(180)"/>
            <rect class="cls-8" x="159.34" y="106.04" width="52.85" height="48.72" rx="11.34" ry="11.34" transform="translate(371.52 260.81) rotate(180)"/>
            <path class="cls-8" d="M159.91,164.53h51.7a13,13,0,0,0,13-13v6.39a13,13,0,0,1-13,13h-51.7a13,13,0,0,1-13-13v-6.39A13,13,0,0,0,159.91,164.53Z"/>
          </g>
          <rect class="cls-9" x="182.22" y="122.59" width="7.08" height="65.3" rx="3.07" ry="3.07" transform="translate(371.52 310.49) rotate(-180)"/>
          <rect class="cls-9" x="193.08" y="174.86" width="5.12" height="27.35" rx="2.22" ry="2.22" transform="translate(-47.21 310.36) rotate(-70.58)"/>
          <rect class="cls-9" x="173.58" y="174.86" width="5.12" height="27.35" rx="2.22" ry="2.22" transform="translate(56.9 417.33) rotate(-109.42)"/>
          <path class="cls-7" d="M182.22,122.59h7.08a0,0,0,0,1,0,0v45.26a3.07,3.07,0,0,1-3.07,3.07h-0.94a3.07,3.07,0,0,1-3.07-3.07V122.59a0,0,0,0,1,0,0Z" transform="translate(371.52 293.52) rotate(-180)"/>
        </g>
        <polygon class="cls-10" points="258.17 141.89 118.89 141.89 99.64 154.76 277.43 154.76 258.17 141.89"/>
        <g>
          <rect class="cls-11" x="101.74" y="189.29" width="55.76" height="8.06" transform="translate(322.94 63.69) rotate(90)"/>
          <rect class="cls-11" x="219.55" y="189.29" width="55.76" height="8.06" transform="translate(440.75 -54.12) rotate(90)"/>
        </g>
        <polygon class="cls-12" points="258.17 141.89 99.64 154.76 277.43 154.76 258.17 141.89"/>
        <path class="cls-13" d="M226.91,123.37v-0.12c0-.16,0-0.32,0-0.48h0v-0.08q0-.51.05-1h0c0-.15,0-0.3,0-0.45s0-.09,0-0.13,0-.29,0-0.43v-0.12a9.7,9.7,0,0,0-.34-2.12v-7c0-6.87-4.94-11.28-11-11.28h-6.84l0-.1a4.28,4.28,0,0,0-.74-2.33,23.2,23.2,0,0,0,2.36-6.37,25.22,25.22,0,1,0-45.7,0,23.2,23.2,0,0,0,2.3,6.26,3.65,3.65,0,0,0-.81,2.14s-20.24-3.05-20.77,19.37c-0.34,3.32.19,27.87,0.19,27.87,0,6.83,7.83,11.51,13.88,11.51h56c6,0,11-5.58,11-12.41l0.08-18.34,0.06-.33,0.06-.35,0.05-.35,0-.26,0-.38,0-.22c0-.14,0-0.27,0-0.41v-0.08q0-.51.05-1h0c0-.15,0-0.3,0-0.45s0-.09,0-0.13S226.92,123.51,226.91,123.37Z"/>
        <path class="cls-14" d="M217.2,153.78H163.43c-5.81,0-10.56-5.27-10.58-11.7L152.75,111a10.24,10.24,0,0,1,10.58-10.64h54A10.24,10.24,0,0,1,227.88,111l-0.1,31.09C227.76,148.51,223,153.78,217.2,153.78Z"/>
        <circle class="cls-15" cx="190.22" cy="79.31" r="24.22"/>
        <path class="cls-16" d="M173.34,79.64A23.89,23.89,0,0,1,193.56,56a23.89,23.89,0,1,0,0,47.21A23.89,23.89,0,0,1,173.34,79.64Z"/>
        <g>
          <path class="cls-17" d="M175.3,75.13c0-1.47,1.7-2.65,3.8-2.65s3.8,1.19,3.8,2.65"/>
          <path class="cls-17" d="M197.53,75.13c0-1.47,1.7-2.65,3.8-2.65s3.8,1.19,3.8,2.65"/>
        </g>
        <path class="cls-17" d="M186,88.67a17.77,17.77,0,0,0,8.34,0"/>
        <g class="cls-18">
          <path class="cls-3" d="M212.56,68.9c5.58,11.23-28.41-14.43-39.64-4.38C169,61.66,171,58,174.83,55c3.14-2.53,15.93-6.79,22.54-8.55,0,4.89.73,9.65,2.21,12.71,0.47-2.4,2.76-4.57,6.27-6.31C206.65,57.1,207.54,58.8,212.56,68.9Z"/>
        </g>
        <path class="cls-19" d="M212.8,68.23c2.75,5.94-28.55-13.86-39.89-3.72-4-2.87-1.86-7.29,2-10.37,3.17-2.55,15.4-6.67,22.07-8.45a29.35,29.35,0,0,0,2.9,12.65c0.48-2.42,2.78-4.61,6.32-6.37C207,56.28,208,57.91,212.8,68.23Z"/>
        <g>
          <path class="cls-20" d="M212.52,67.21c5.38,10.45-28.33-14.91-39.67-4.77-4-2.87-1.89-6.53,1.94-9.61,3.17-2.55,16.07-6.86,22.74-8.63-0.05,4.94.74,9.74,2.23,12.83,0.48-2.42,2.78-4.61,6.32-6.37C206.89,55,207.32,57.1,212.52,67.21Z"/>
          <path class="cls-21" d="M180.42,52.82c2.42-1.94,10.47-4.9,17.13-7,0-.54,0-1.09,0-1.64C190.86,46,178,50.27,174.79,52.82c-3.83,3.08-5.93,6.74-1.94,9.61a9.15,9.15,0,0,1,3.83-2C175.5,58,177.43,55.22,180.42,52.82Z"/>
        </g>
        <g>
          <path class="cls-19" d="M171.16,61.26c4.84,2.55.23,6-4.75,12C162.61,74.53,165.62,58.35,171.16,61.26Z"/>
          <path class="cls-20" d="M171.16,61.26c3.46,2.24,0,5.25-5,11.27C162.38,73.76,165.29,57.46,171.16,61.26Z"/>
          <path class="cls-21" d="M172,62l0.17,0.12a3.65,3.65,0,0,0-1-.89c-5.55-3.6-8.45,10.77-5.53,11.31C164.29,69.53,167.12,58.89,172,62Z"/>
        </g>
        <g>
          <path class="cls-22" d="M230,133.67V96.5a3.89,3.89,0,0,0-3.88-3.88H151a3.89,3.89,0,0,0-3.88,3.88v37.17s1.2,19.11,2.66,19.11h77.57C228.78,152.78,230,133.67,230,133.67Z"/>
          <g>
            <path class="cls-4" d="M226.19,154.45H150.87a5.4,5.4,0,0,1-3.47-1l-9-10.56c-0.75-.87.12-1.6,1.94-1.6h96.46c1.82,0,2.69.73,1.94,1.6l-9,10.56A5.4,5.4,0,0,1,226.19,154.45Z"/>
            <path class="cls-11" d="M226.19,152.9H150.87a5.4,5.4,0,0,1-3.47-1l-9-10.56c-0.75-.87.12-1.6,1.94-1.6h96.46c1.82,0,2.69.73,1.94,1.6l-9,10.56A5.4,5.4,0,0,1,226.19,152.9Z"/>
            <rect class="cls-23" x="148.28" y="96.03" width="80.5" height="56.29" rx="4.82" ry="4.82"/>
            <path class="cls-24" d="M225,152.32H152a3.78,3.78,0,0,1-3.77-3.77L225,96a3.78,3.78,0,0,1,3.77,3.77v48.76A3.78,3.78,0,0,1,225,152.32Z"/>
          </g>
          <g>
            <path class="cls-3" d="M185.61,120.35a1.17,1.17,0,0,0-1.17,1.17,1.19,1.19,0,0,0,1.17,1.19,1.2,1.2,0,0,0,1.19-1.19A1.19,1.19,0,0,0,185.61,120.35Z"/>
            <path class="cls-3" d="M191.73,117.19H181.44v10.33a3.75,3.75,0,0,0,3.89,3.86h10.29V121.05A3.79,3.79,0,0,0,191.73,117.19Zm2.25,10-5.2-4a1,1,0,0,0-1.37,1.43l4.41,5.13h-6.5a2.1,2.1,0,0,1-2.25-2.22v-8.68h8.65a2.14,2.14,0,0,1,2.25,2.22v6.17Z"/>
          </g>
        </g>
        <rect class="cls-6" x="99.63" y="154.76" width="177.79" height="16.24"/>
        <polygon class="cls-9" points="277.43 171 99.64 171 277.43 154.76 277.43 171"/>
      </g>
      <g id="pink" class="fade-in cloud pink">
        <path class="cls-22" d="M314.42,71.43L319,66.8l-4.57-4.63h0l-1.62-1.64V45.83a3.14,3.14,0,0,0-3.13-3.13H248.24a3.14,3.14,0,0,0-3.13,3.13V74a3.14,3.14,0,0,0,3.13,3.13h61.42A3.14,3.14,0,0,0,312.8,74V73.07l1.62-1.64h0Z"/>
        <g>
          <g>
            <polygon class="cls-25" points="321.43 64.21 312.29 73.47 312.29 54.95 321.43 64.21"/>
            <polygon class="cls-26" points="316.86 59.58 312.29 54.95 312.29 73.47 316.86 68.84 316.86 59.58"/>
          </g>
          <rect class="cls-25" x="247.56" y="40.1" width="67.69" height="34.39" rx="4.01" ry="4.01"/>
          <g>
            <rect class="cls-27" x="256.01" y="46.28" width="50.78" height="5.88" rx="2.55" ry="2.55"/>
            <rect class="cls-27" x="256.01" y="54.04" width="25.39" height="5.88" rx="2.55" ry="2.55"/>
            <rect class="cls-27" x="256.01" y="62.44" width="44.5" height="5.88" rx="2.55" ry="2.55"/>
          </g>
        </g>
        <g id="dots">
          <circle class="cls-4 fade-in dot three" cx="290.31" cy="84.46" r="2.87"/>
          <circle class="cls-4 fade-in dot two" cx="299.21" cy="84.46" r="2.87"/>
          <circle class="cls-4 fade-in dot one" cx="308.12" cy="84.46" r="2.87"/>
        </g>
      </g>
      <g id="gray" class="fade-in cloud gray">
        <path class="cls-22" d="M130.27,38.09H45.11a4.35,4.35,0,0,0-4.34,4.34v39a4.35,4.35,0,0,0,4.34,4.34H88.7l9.54,9.41,9.54-9.41h22.49a4.35,4.35,0,0,0,4.34-4.34v-39A4.35,4.35,0,0,0,130.27,38.09Z"/>
        <g>
          <polygon class="cls-5" points="97.68 91.8 110.51 79.13 84.84 79.13 97.68 91.8"/>
          <polygon class="cls-28" points="91.26 85.47 84.84 79.13 110.51 79.13 104.09 85.47 91.26 85.47"/>
        </g>
        <rect class="cls-5" x="40.21" y="34.71" width="93.84" height="47.67" rx="5.56" ry="5.56"/>
        <g>
          <g>
            <rect class="cls-25" x="49.91" y="43.5" width="11.44" height="7.24" rx="3.14" ry="3.14"/>
            <rect class="cls-29" x="78.99" y="43.5" width="45.36" height="7.24" rx="3.14" ry="3.14"/>
            <rect class="cls-23" x="63.04" y="43.5" width="12.77" height="7.24" rx="3.14" ry="3.14"/>
          </g>
          <g>
            <rect class="cls-25" x="63.04" y="54.93" width="9.42" height="7.24" rx="3.14" ry="3.14"/>
            <rect class="cls-29" x="86.99" y="54.93" width="37.36" height="7.24" rx="3.14" ry="3.14"/>
            <rect class="cls-23" x="73.85" y="54.93" width="10.52" height="7.24" rx="3.14" ry="3.14"/>
          </g>
          <g>
            <rect class="cls-25" x="63.04" y="66.36" width="9.42" height="7.24" rx="3.14" ry="3.14"/>
            <rect class="cls-29" x="86.99" y="66.36" width="37.36" height="7.24" rx="3.14" ry="3.14"/>
            <rect class="cls-23" x="73.85" y="66.36" width="10.52" height="7.24" rx="3.14" ry="3.14"/>
          </g>
        </g>
        <g id="dots-2" data-name="dots">
          <circle class="cls-4 fade-in dot seven" cx="44.06" cy="93.18" r="2.87"/>
          <circle class="cls-4 fade-in dot six" cx="52.97" cy="93.18" r="2.87"/>
          <circle class="cls-4 fade-in dot five" cx="61.88" cy="93.18" r="2.87"/>
        </g>
      </g>
    </g>
  </g>
</svg>
