<?xml version="1.0" encoding="utf-8"?>
<!-- Generator: Adobe Illustrator 21.1.0, SVG Export Plug-In . SVG Version: 6.00 Build 0)  -->
<svg version="1.1" xmlns="http://www.w3.org/2000/svg" xmlns:xlink="http://www.w3.org/1999/xlink" x="0px" y="0px"
	 viewBox="0 0 124 99.5" style="enable-background:new 0 0 124 99.5;" xml:space="preserve">
<style type="text/css">
	.st0{fill:#FFFFFF;}
	.st1{fill:#404041;}
	.st2{fill:none;stroke:#E6E7E8;stroke-width:6;stroke-linecap:round;stroke-linejoin:round;stroke-miterlimit:10;}
	.st3{fill:#78A836;}
	.st4{fill:#FFFFFF;stroke:#78A836;stroke-linecap:round;stroke-linejoin:round;stroke-miterlimit:10;}
	.st5{fill:none;stroke:#78A836;stroke-linecap:round;stroke-linejoin:round;stroke-miterlimit:10;}
	.st6{fill:none;stroke:#6D6E71;stroke-width:1.0099;stroke-linecap:round;stroke-linejoin:round;stroke-miterlimit:10;}
	.st7{fill:none;stroke:#BCBEC0;stroke-linecap:round;stroke-linejoin:round;stroke-miterlimit:10;}
	.st8{fill:none;stroke:#BCBEC0;stroke-width:1.0099;stroke-linecap:round;stroke-linejoin:round;stroke-miterlimit:10;}
	.st9{fill:#E6E7E8;}
	.st10{fill:#FFFFFF;stroke:#6D6E71;stroke-linecap:round;stroke-linejoin:round;stroke-miterlimit:10;}
	.st11{fill:none;stroke:#6D6E71;stroke-linecap:round;stroke-linejoin:round;stroke-miterlimit:10;}
	.st12{fill:#FFFFFF;stroke:#6D6E71;stroke-miterlimit:10;}
	.st13{fill:none;stroke:#6D6E71;stroke-miterlimit:10;}
	.st14{fill:url(#SVGID_1_);}
	.st15{fill:url(#SVGID_2_);}
	.st16{fill:#EDEDED;}
	.st17{fill:#878789;}
	.st18{fill:#F5E990;}
	.st19{fill:#E81E79;}
	.st20{fill:#7E86C0;}
	.st21{fill:#587D27;}
	.st22{fill:#EF7B20;}
	.st23{fill:none;stroke:#D1D3D4;stroke-width:0.9294;stroke-linecap:round;stroke-linejoin:round;stroke-miterlimit:10;}
	.st24{fill:none;stroke:#6D6E71;stroke-width:0.9294;stroke-linecap:round;stroke-linejoin:round;stroke-miterlimit:10;}
	.st25{fill:none;stroke:#6D6E71;stroke-width:0.9294;stroke-miterlimit:10;}
	.st26{fill:none;stroke:#6D6E71;stroke-width:1.0622;stroke-linecap:round;stroke-linejoin:round;stroke-miterlimit:10;}
	.st27{fill:#D1D3D4;}
	.st28{fill:#6D6E71;}
	.st29{fill:none;stroke:#404041;stroke-width:2.7989;stroke-linecap:round;stroke-miterlimit:10;}
	.st30{fill:none;stroke:#404041;stroke-width:2.7989;stroke-linecap:round;stroke-linejoin:round;stroke-miterlimit:10;}
	.st31{fill:#E1FFB8;}
	.st32{fill:#F1F2F2;}
	.st33{clip-path:url(#SVGID_4_);fill:#3E82F1;}
	.st34{clip-path:url(#SVGID_6_);fill:#32A753;}
	.st35{clip-path:url(#SVGID_8_);fill:#F9BB00;}
	.st36{clip-path:url(#SVGID_10_);fill:#E74133;}
	.st37{clip-path:url(#SVGID_12_);fill:#78A836;}
	.st38{clip-path:url(#SVGID_14_);fill:#C3EB8E;}
	.st39{clip-path:url(#SVGID_16_);fill:#E6E7E8;}
	.st40{clip-path:url(#SVGID_18_);fill:#BCBEC0;}
	.st41{clip-path:url(#SVGID_20_);fill:#78A836;}
	.st42{clip-path:url(#SVGID_22_);fill:#C3EB8E;}
	.st43{clip-path:url(#SVGID_24_);fill:#E6E7E8;}
	.st44{clip-path:url(#SVGID_26_);fill:#BCBEC0;}
	.st45{clip-path:url(#SVGID_28_);fill:#78A836;}
	.st46{clip-path:url(#SVGID_30_);fill:#C3EB8E;}
	.st47{clip-path:url(#SVGID_32_);fill:#E6E7E8;}
	.st48{clip-path:url(#SVGID_34_);fill:#BCBEC0;}
	.st49{fill:none;stroke:#BCBEC0;stroke-width:1;stroke-linecap:round;stroke-linejoin:round;stroke-miterlimit:10;}
	.st50{fill:none;stroke:#6D6E71;stroke-width:1;stroke-linecap:round;stroke-linejoin:round;stroke-miterlimit:10;}
	.st51{clip-path:url(#SVGID_36_);fill:#78A836;}
	.st52{clip-path:url(#SVGID_38_);fill:#C3EB8E;}
	.st53{clip-path:url(#SVGID_40_);fill:#E6E7E8;}
	.st54{clip-path:url(#SVGID_42_);fill:#BCBEC0;}
	.st55{clip-path:url(#SVGID_44_);fill:#78A836;}
	.st56{clip-path:url(#SVGID_46_);fill:#C3EB8E;}
	.st57{clip-path:url(#SVGID_48_);fill:#E6E7E8;}
	.st58{clip-path:url(#SVGID_50_);fill:#BCBEC0;}
	.st59{clip-path:url(#SVGID_52_);fill:#78A836;}
	.st60{clip-path:url(#SVGID_54_);fill:#C3EB8E;}
	.st61{clip-path:url(#SVGID_56_);fill:#E6E7E8;}
	.st62{clip-path:url(#SVGID_58_);fill:#BCBEC0;}
	.st63{clip-path:url(#SVGID_60_);fill:#78A836;}
	.st64{clip-path:url(#SVGID_62_);fill:#C3EB8E;}
	.st65{clip-path:url(#SVGID_64_);fill:#E6E7E8;}
	.st66{clip-path:url(#SVGID_66_);fill:#BCBEC0;}
	.st67{fill:none;}
	.st68{clip-path:url(#SVGID_68_);fill:#78A836;}
	.st69{clip-path:url(#SVGID_70_);fill:#C3EB8E;}
	.st70{clip-path:url(#SVGID_72_);fill:#E6E7E8;}
	.st71{clip-path:url(#SVGID_74_);fill:#BCBEC0;}
	.st72{fill:none;stroke:#DFEDC8;stroke-width:6;stroke-linecap:round;stroke-linejoin:round;stroke-miterlimit:10;}
	.st73{fill:none;stroke:#E81E79;stroke-linecap:round;stroke-linejoin:round;stroke-miterlimit:10;}
	.st74{fill:none;stroke:#EDD6E3;stroke-width:6;stroke-linecap:round;stroke-linejoin:round;stroke-miterlimit:10;}
	.st75{fill:none;stroke:#6D6E71;stroke-width:1.5;stroke-linecap:round;stroke-linejoin:round;stroke-miterlimit:10;}
	.st76{fill:#F4EECE;}
	.st77{fill:none;stroke:#EDD6E3;stroke-width:9;stroke-linecap:round;stroke-linejoin:round;stroke-miterlimit:10;}
	.st78{fill:none;stroke:#E6E7E8;stroke-width:9;stroke-linecap:round;stroke-linejoin:round;stroke-miterlimit:10;}
	.st79{fill:none;stroke:#DFEDC8;stroke-width:9;stroke-linecap:round;stroke-linejoin:round;stroke-miterlimit:10;}
	.st80{fill:none;stroke:#BCBEC0;stroke-width:1.5;stroke-linecap:round;stroke-linejoin:round;stroke-miterlimit:10;}
	.st81{fill:none;stroke:#78A836;stroke-width:1.5;stroke-linecap:round;stroke-linejoin:round;stroke-miterlimit:10;}
	.st82{fill-rule:evenodd;clip-rule:evenodd;fill:none;stroke:#BCBEC0;stroke-width:1.5;stroke-miterlimit:10;}
	.st83{fill:none;stroke:#E81E79;stroke-width:1.5;stroke-linecap:round;stroke-linejoin:round;stroke-miterlimit:10;}
	.st84{fill:#C3EB8E;}
	.st85{fill:#BCBEC0;}
	.st86{fill:#DFEDC8;}
	.st87{fill:none;stroke:#404041;stroke-width:3;stroke-linecap:round;stroke-linejoin:round;stroke-miterlimit:10;}
	.st88{fill:none;stroke:#404041;stroke-width:6;stroke-linecap:round;stroke-miterlimit:10;}
	.st89{fill:none;stroke:#404041;stroke-width:6;stroke-linecap:round;stroke-linejoin:round;stroke-miterlimit:10;}
	.st90{fill:none;stroke:#404041;stroke-width:2.1701;stroke-linecap:round;stroke-linejoin:round;stroke-miterlimit:10;}
	.st91{fill:none;stroke:#404041;stroke-width:3.3555;stroke-linecap:round;stroke-linejoin:round;stroke-miterlimit:10;}
	.st92{fill:#F4E06C;}
	.st93{fill:#F45BA7;}
	.st94{fill:#EDD6E3;}
	.st95{clip-path:url(#SVGID_76_);fill:#BCBEC0;}
	.st96{clip-path:url(#SVGID_78_);fill:#BCBEC0;}
	.st97{clip-path:url(#SVGID_80_);fill:#BCBEC0;}
	.st98{clip-path:url(#SVGID_82_);fill:#BCBEC0;}
	.st99{clip-path:url(#SVGID_84_);fill:#BCBEC0;}
	.st100{clip-path:url(#SVGID_86_);fill:#BCBEC0;}
	.st101{clip-path:url(#SVGID_88_);fill:#BCBEC0;}
	.st102{clip-path:url(#SVGID_90_);fill:#BCBEC0;}
	.st103{fill:none;stroke:#EDEDED;stroke-width:8.5472;stroke-miterlimit:10;}
	.st104{fill:#3E3E3F;}
	.st105{fill:#77AC36;}
	.st106{fill:none;stroke:#EDEDED;stroke-width:2.8491;stroke-linecap:round;stroke-linejoin:round;stroke-miterlimit:10;}
	.st107{fill:none;stroke:#77AC36;stroke-width:3;stroke-linecap:round;stroke-linejoin:round;stroke-miterlimit:10;}
	.st108{fill:none;stroke:#EDEDED;stroke-width:1.6069;stroke-linecap:round;stroke-linejoin:round;stroke-miterlimit:10;}
	.st109{fill:#F2F2F2;}
	.st110{fill:none;stroke:#EDEDED;stroke-width:2;stroke-linecap:round;stroke-linejoin:round;stroke-miterlimit:10;}
	.st111{fill:none;stroke:#F1F2F2;stroke-width:6;stroke-linecap:round;stroke-linejoin:round;stroke-miterlimit:10;}
	.st112{fill-rule:evenodd;clip-rule:evenodd;fill:#E6E7E8;}
	.st113{fill:none;stroke:#C3EB8E;stroke-linecap:round;stroke-linejoin:round;stroke-miterlimit:10;}
</style>
<g id="Guidelines">
</g>
<g id="Layer_3">
</g>
<g id="Your_Icons">
	<g>
		<g>
			<g>
				<path class="st32" d="M42.9,25.5c-1.7,0-3-1.3-3-3c0-5.4,1.6-10.3,4.7-13.9c1.1-1.3,3-1.4,4.2-0.4c1.3,1.1,1.4,3,0.4,4.2
					c-2.2,2.6-3.3,6-3.3,10.1C45.9,24.2,44.5,25.5,42.9,25.5z"/>
			</g>
		</g>
		<g>
			<path class="st9" d="M32.8,99.5c-3,0-5.9-1.3-8-3.6c-2.5-2.7-3.7-6.5-3.3-10.4c0.1-1.7,1.6-2.9,3.2-2.7c1.7,0.1,2.9,1.6,2.7,3.2
				c-0.2,2.3,0.5,4.4,1.8,5.9c0.7,0.7,1.9,1.6,3.6,1.6c1.7,0,3,1.3,3,3S34.5,99.5,32.8,99.5z"/>
		</g>
		<g>
			<path class="st9" d="M76.7,23.6c-1.7,0-3-1.3-3-3V20c0-1.7,1.3-3,3-3s3,1.3,3,3v0.6C79.7,22.2,78.4,23.6,76.7,23.6z"/>
		</g>
		<g>
			<path class="st9" d="M75.2,98.5h-0.8c-1.7,0-3-1.3-3-3s1.3-3,3-3h0.8c1.7,0,3,1.3,3,3S76.9,98.5,75.2,98.5z"/>
		</g>
		<g>
			<g>
				<path class="st9" d="M25.5,84.8l5.2-53.2c0.4-4.2,4.1-7.6,8.2-7.6h2c-4.2,0-7.9,3.4-8.2,7.6l-5.2,53.2
					c-0.5,5.8,3.2,10.7,8.3,10.7h-2C28.7,95.5,25,90.6,25.5,84.8z"/>
			</g>
			<g>
				<path class="st9" d="M99.2,84.8L94,31.6c-0.4-4.2-4.1-7.6-8.2-7.6h-2c4.2,0,7.9,3.4,8.2,7.6l5.2,53.2c0.5,5.8-3.2,10.7-8.3,10.7
					h2C95.9,95.5,99.7,90.6,99.2,84.8z"/>
			</g>
		</g>
		<g>
			<g>
				<path class="st85" d="M98.7,78.3c-0.3,0-0.5-0.2-0.5-0.5l-1.7-37.3c0-0.3,0.2-0.5,0.5-0.5c0.3,0,0.5,0.2,0.5,0.5l1.7,37.3
					C99.2,78.1,99,78.3,98.7,78.3C98.7,78.3,98.7,78.3,98.7,78.3z"/>
			</g>
			<g>
				<path class="st85" d="M96.8,37.7c-0.3,0-0.5-0.2-0.5-0.5l0-1c0-0.3,0.2-0.5,0.5-0.5c0.3,0,0.5,0.2,0.5,0.5l0,1
					C97.3,37.4,97.1,37.6,96.8,37.7C96.8,37.7,96.8,37.7,96.8,37.7z"/>
			</g>
		</g>
		<g>
			<g>
				<path class="st85" d="M26,78.3C26,78.3,26,78.3,26,78.3c-0.3,0-0.5-0.2-0.5-0.5l1.7-37.3c0-0.3,0.3-0.5,0.5-0.5
					c0.3,0,0.5,0.2,0.5,0.5l-1.7,37.3C26.5,78.1,26.3,78.3,26,78.3z"/>
			</g>
			<g>
				<path class="st85" d="M27.9,37.7C27.8,37.7,27.8,37.7,27.9,37.7c-0.3,0-0.5-0.2-0.5-0.5l0-1c0-0.3,0.2-0.5,0.5-0.5c0,0,0,0,0,0
					c0.3,0,0.5,0.2,0.5,0.5l0,1C28.3,37.4,28.1,37.7,27.9,37.7z"/>
			</g>
		</g>
		<g>
			<path class="st28" d="M76.7,19c-0.3,0-0.5-0.2-0.5-0.5c0-6-2.7-9.5-4.9-11.3C71.1,7,71,6.7,71.2,6.5c0.2-0.2,0.5-0.2,0.7-0.1
				c2.4,2,5.3,5.6,5.3,12.1C77.2,18.8,77,19,76.7,19z"/>
		</g>
		<g>
			<path class="st28" d="M48,19c-0.3,0-0.5-0.2-0.5-0.5c0-10.5,7.7-15.3,14.9-15.3c3.6,0,6.9,1.2,9.6,3.3c0.2,0.2,0.2,0.5,0.1,0.7
				c-0.2,0.2-0.5,0.2-0.7,0.1c-2.4-2-5.6-3.1-8.9-3.1c-6.7,0-13.9,4.5-13.9,14.3C48.5,18.8,48.3,19,48,19z"/>
		</g>
		<g>
			<path class="st28" d="M48,22.1c-0.3,0-0.5-0.2-0.5-0.5V21c0-0.3,0.2-0.5,0.5-0.5s0.5,0.2,0.5,0.5v0.6
				C48.5,21.9,48.3,22.1,48,22.1z"/>
		</g>
		<g>
			<path class="st28" d="M76.7,22.1c-0.3,0-0.5-0.2-0.5-0.5V21c0-0.3,0.2-0.5,0.5-0.5s0.5,0.2,0.5,0.5v0.6
				C77.2,21.9,77,22.1,76.7,22.1z"/>
		</g>
		<g>
			<g>
				<path class="st85" d="M79.8,19c-0.3,0-0.5-0.2-0.5-0.5C79.3,6.5,70.5,1,62.3,1c-8.2,0-16.9,5.5-16.9,17.5c0,0.3-0.2,0.5-0.5,0.5
					s-0.5-0.2-0.5-0.5C44.4,5.8,53.7,0,62.3,0C71,0,80.3,5.8,80.3,18.5C80.3,18.8,80.1,19,79.8,19z"/>
			</g>
		</g>
		<g>
			<path class="st28" d="M72.2,96h-0.8c-0.3,0-0.5-0.2-0.5-0.5s0.2-0.5,0.5-0.5h0.8c0.3,0,0.5,0.2,0.5,0.5S72.5,96,72.2,96z"/>
		</g>
		<g>
			<path class="st28" d="M90.9,96H74.6c-0.3,0-0.5-0.2-0.5-0.5s0.2-0.5,0.5-0.5h16.3c2,0,4-0.9,5.4-2.4c1.8-2,2.7-4.8,2.4-7.8
				l-5.2-53.2c-0.3-3.9-3.8-7.1-7.7-7.1H63c-0.3,0-0.5-0.2-0.5-0.5s0.2-0.5,0.5-0.5h22.8c4.4,0,8.4,3.6,8.7,8l5.2,53.2
				C100,88,99,91.1,97,93.3C95.4,95,93.2,96,90.9,96z"/>
		</g>
		<g>
			<path class="st28" d="M58.3,24.5h-0.7c-0.3,0-0.5-0.2-0.5-0.5s0.2-0.5,0.5-0.5h0.7c0.3,0,0.5,0.2,0.5,0.5S58.6,24.5,58.3,24.5z"
				/>
		</g>
		<g>
			<path class="st28" d="M67.4,96H33.8c-2.3,0-4.5-1-6.1-2.8c-2-2.2-3-5.3-2.7-8.5l5.2-53.2c0.4-4.4,4.3-8,8.7-8h13.3
				c0.3,0,0.5,0.2,0.5,0.5s-0.2,0.5-0.5,0.5H38.9c-3.9,0-7.4,3.2-7.7,7.1L26,84.8c-0.3,3,0.6,5.8,2.4,7.8c1.4,1.6,3.4,2.4,5.4,2.4
				h33.5c0.3,0,0.5,0.2,0.5,0.5S67.6,96,67.4,96z"/>
		</g>
		<g>
			<path class="st112" d="M79.8,56H62.7v7h9.8c-0.4,2.3-1.7,4.2-3.6,5.5c-1.6,1.1-3.7,1.7-6.2,1.7c-4.7,0-8.7-3.2-10.2-7.5
				c-0.4-1.1-0.6-2.3-0.6-3.5c0-1.2,0.2-2.4,0.6-3.5c1.4-4.3,5.4-7.5,10.2-7.5c2.7,0,5.1,0.9,6.9,2.7l5.2-5.2
				c-3.1-2.9-7.3-4.7-12.2-4.7c-7.1,0-13.3,4.1-16.2,10c-1.2,2.5-1.9,5.2-1.9,8.2c0,2.9,0.7,5.7,1.9,8.2c3,5.9,9.1,10,16.2,10
				c4.9,0,9-1.6,12-4.4c3.4-3.2,5.4-7.8,5.4-13.4C80.2,58.4,80,57.1,79.8,56z"/>
		</g>
		<g>
			<path class="st86" d="M107.4,42.3c-0.4,0-0.9-0.1-1.3-0.3c-0.2-0.1-0.5-0.2-0.7-0.3c-1.6-0.5-2.5-2.2-2-3.8
				c0.5-1.6,2.2-2.5,3.8-2c0.5,0.2,1,0.4,1.5,0.6c1.5,0.7,2.1,2.5,1.4,4C109.6,41.7,108.5,42.3,107.4,42.3z"/>
		</g>
		<g>
			<path class="st86" d="M121,81.2c-1.5,0-2.8-1.2-3-2.7l-1.2-12.1c-0.2-1.6,1-3.1,2.7-3.3c1.7-0.2,3.1,1,3.3,2.7L124,78
				c0.2,1.6-1,3.1-2.7,3.3C121.2,81.2,121.1,81.2,121,81.2z"/>
		</g>
		<g>
			<path class="st3" d="M118.2,88h-14.5c-0.3,0-0.5-0.2-0.5-0.5s0.2-0.5,0.5-0.5h14.5c1,0,1.9-0.4,2.6-1.2c0.9-1,1.3-2.4,1.2-3.9
				l-2.7-27.7c0-0.3,0.2-0.5,0.4-0.5c0.3,0,0.5,0.2,0.5,0.4l2.7,27.7c0.1,1.8-0.4,3.5-1.5,4.6C120.7,87.5,119.5,88,118.2,88z"/>
		</g>
		<g>
			<path class="st3" d="M115.6,50.7h-11.9c-0.3,0-0.5-0.2-0.5-0.5s0.2-0.5,0.5-0.5h11.9c0.3,0,0.5,0.2,0.5,0.5
				S115.8,50.7,115.6,50.7z"/>
		</g>
		<g>
			<path class="st3" d="M112.4,48.4c-0.3,0-0.5-0.2-0.5-0.5c0-3.3-1.3-5.9-3.7-7.5c-2.4-1.6-5.8-1.9-8.5-0.7c-0.3,0.1-0.5,0-0.7-0.3
				c-0.1-0.3,0-0.5,0.3-0.7c3.1-1.3,6.7-1.1,9.5,0.7c2.7,1.8,4.2,4.7,4.2,8.3C112.9,48.2,112.7,48.4,112.4,48.4z"/>
		</g>
		<g>
			<path class="st3" d="M101.1,50.7h-1c-0.3,0-0.5-0.2-0.5-0.5s0.2-0.5,0.5-0.5h1c0.3,0,0.5,0.2,0.5,0.5S101.3,50.7,101.1,50.7z"/>
		</g>
		<g>
			<path class="st94" d="M18.7,54.3C18.7,54.3,18.7,54.3,18.7,54.3l-7.2-0.1c-1.7,0-3-1.4-3-3c0-1.6,1.4-3,3-3c0,0,0,0,0,0l7.1,0.1
				c1.7,0,3,1.4,3,3C21.7,52.9,20.3,54.3,18.7,54.3z"/>
		</g>
		<g>
			<path class="st19" d="M19.4,88H4.9c-1.3,0-2.5-0.5-3.4-1.5c-1.1-1.2-1.6-2.9-1.5-4.6l2.7-27.8c0-0.3,0.3-0.5,0.5-0.4
				c0.3,0,0.5,0.3,0.4,0.5L1,82c-0.1,1.5,0.3,2.9,1.2,3.9C2.9,86.6,3.9,87,4.9,87h14.5c0.3,0,0.5,0.2,0.5,0.5S19.6,88,19.4,88z"/>
		</g>
		<g>
			<path class="st19" d="M19.4,50.7H7.5c-0.3,0-0.5-0.2-0.5-0.5s0.2-0.5,0.5-0.5h11.9c0.3,0,0.5,0.2,0.5,0.5S19.7,50.7,19.4,50.7z"
				/>
		</g>
		<g>
			<path class="st19" d="M10.6,48.4c-0.3,0-0.5-0.2-0.5-0.5c0-3.6,1.5-6.6,4.2-8.3c2.8-1.8,6.4-2.1,9.5-0.7c0.3,0.1,0.4,0.4,0.3,0.7
				s-0.4,0.4-0.7,0.3c-2.7-1.2-6.1-0.9-8.5,0.7c-2.4,1.6-3.7,4.2-3.7,7.5C11.1,48.2,10.9,48.4,10.6,48.4z"/>
		</g>
		<g>
			<path class="st19" d="M23,50.7h-1c-0.3,0-0.5-0.2-0.5-0.5s0.2-0.5,0.5-0.5h1c0.3,0,0.5,0.2,0.5,0.5S23.3,50.7,23,50.7z"/>
		</g>
	</g>
</g>
</svg>
