<?xml version="1.0" encoding="UTF-8"?>
<svg width="196px" height="35px" viewBox="0 0 196 35" version="1.1" xmlns="http://www.w3.org/2000/svg" xmlns:xlink="http://www.w3.org/1999/xlink">
    <!-- Generator: Sketch 51.3 (57544) - http://www.bohemiancoding.com/sketch -->
    <title>pimcore-logo-no-claim</title>
    <desc>Created with Sketch.</desc>
    <defs></defs>
    <g id="Page-1" stroke="none" stroke-width="1" fill="none" fill-rule="evenodd">
        <g id="pimcore-logo-no-claim" fill="#6428B4" fill-rule="nonzero">
            <g id="LOGO_7_">
                <g id="LOGO_8_" transform="translate(0.000000, 4.900000)">
                    <path d="M186.2,1.225 L186.2,0 L170.275,0 C168.233333,0 166.6,1.63333333 166.6,3.675 L166.6,20.825 C166.6,22.8666667 168.233333,24.5 170.275,24.5 L182.525,24.5 C184.566667,24.5 186.2,22.8666667 186.2,20.825 L186.2,19.6 L172.153333,19.6 C171.826667,19.6 171.5,19.2733333 171.5,18.9466667 L171.5,14.7 L182.525,14.7 C184.566667,14.7 186.2,13.0666667 186.2,11.025 L186.2,9.8 L171.5,9.8 L171.5,5.55333333 C171.5,5.22666667 171.826667,4.9 172.153333,4.9 L182.525,4.9 C184.566667,4.9 186.2,3.26666667 186.2,1.225 Z" id="Shape"></path>
                    <path d="M161.7,8.49333333 C161.618333,3.75666667 157.616667,-1.77635684e-15 152.88,-1.77635684e-15 L140.875,-1.77635684e-15 C138.833333,-1.77635684e-15 137.2,1.63333333 137.2,3.675 L137.2,24.5 L138.425,24.5 C140.466667,24.5 142.1,22.8666667 142.1,20.825 L142.1,17.15 L151.818333,17.15 L155.33,23.275 C155.738333,24.01 156.555,24.5 157.453333,24.5 L161.7,24.5 L156.963333,16.2516667 C159.821667,14.8633333 161.781667,11.8416667 161.7,8.49333333 Z M142.835,4.9 L153.043333,4.9 C155.003333,4.9 156.636667,6.45166667 156.8,8.41166667 C156.881667,10.535 155.248333,12.25 153.125,12.25 L142.1,12.25 L142.1,5.635 C142.1,5.22666667 142.426667,4.9 142.835,4.9 Z" id="Shape"></path>
                    <path d="M62.72,0.98 L54.39,9.31 C54.0633333,9.63666667 53.655,9.63666667 53.3283333,9.31 L45.08,0.98 C44.4266667,0.326666667 43.5283333,0 42.63,0 C40.7516667,0 39.2,1.55166667 39.2,3.43 L39.2,24.5 L40.425,24.5 C42.4666667,24.5 44.1,22.8666667 44.1,20.825 L44.1,7.67666667 C44.1,7.35 44.4266667,7.26833333 44.6716667,7.43166667 L51.2866667,14.0466667 C52.7566667,15.5166667 55.0433333,15.5166667 56.5133333,14.0466667 L63.1283333,7.43166667 C63.3733333,7.18666667 63.7,7.35 63.7,7.67666667 L63.7,24.5 L64.925,24.5 C66.9666667,24.5 68.6,22.8666667 68.6,20.825 L68.6,3.43 C68.6,1.55166667 67.0483333,0 65.17,0 L65.0883333,0 C64.19,0 63.3733333,0.326666667 62.72,0.98 Z" id="Shape"></path>
                    <path d="M30.625,24.5 L29.4,24.5 L29.4,3.675 C29.4,1.63333333 31.0333333,0 33.075,0 L34.3,0 L34.3,20.825 C34.3,22.8666667 32.6666667,24.5 30.625,24.5 Z" id="Shape"></path>
                    <path d="M15.68,0 L3.675,0 C1.63333333,0 0,1.63333333 0,3.675 L0,24.5 L1.225,24.5 C3.26666667,24.5 4.9,22.8666667 4.9,20.825 L4.9,17.15 L15.925,17.15 C20.58,17.15 24.4183333,13.3933333 24.5,8.73833333 C24.5816667,3.92 20.4983333,0 15.68,0 Z M15.8433333,12.25 L4.9,12.25 L4.9,5.635 C4.9,5.22666667 5.22666667,4.9 5.635,4.9 L15.925,4.9 C18.0483333,4.9 19.6816667,6.615 19.6,8.73833333 C19.5183333,10.6983333 17.8033333,12.25 15.8433333,12.25 Z" id="Shape"></path>
                </g>
                <path d="M120.05,4.9 C115.803333,4.9 112.046667,7.105 109.841667,10.3716667 L100.858333,23.9283333 C98.6533333,27.195 94.8966667,29.4 90.65,29.4 C83.8716667,29.4 78.4,23.9283333 78.4,17.15 C78.4,10.3716667 83.8716667,4.9 90.65,4.9 C94.8966667,4.9 98.5716667,7.02333333 100.776667,10.29 L102.41,12.74 L105.35,8.33 L104.941667,7.67666667 C101.838333,3.10333333 96.6116667,0.0816666667 90.65,0.0816666667 C81.1766667,0.0816666667 73.5,7.75833333 73.5,17.2316667 C73.5,26.705 81.1766667,34.3816667 90.65,34.3816667 C96.6116667,34.3816667 101.92,31.36 104.941667,26.705 L108.29,21.6416667 L109.841667,24.01 C112.046667,27.2766667 115.803333,29.4816667 120.05,29.4816667 C126.828333,29.4816667 132.3,24.01 132.3,17.2316667 C132.3,10.4533333 126.828333,4.9 120.05,4.9 Z M120.05,24.5 C117.518333,24.5 115.231667,23.1933333 113.925,21.1516667 L111.23,17.15 L113.925,13.0666667 C115.231667,11.1066667 117.518333,9.8 120.05,9.8 C124.133333,9.8 127.4,13.0666667 127.4,17.15 C127.4,21.2333333 124.133333,24.5 120.05,24.5 Z" id="Shape"></path>
            </g>
            <g id="_x28_R_x29__9_" transform="translate(191.100000, 4.900000)">
                <path d="M3.59333333,2.04166667 C3.59333333,1.63333333 3.185,1.225 2.77666667,1.225 L1.63333333,1.225 C1.47,1.225 1.30666667,1.38833333 1.30666667,1.55166667 L1.30666667,3.59333333 L1.55166667,3.59333333 C1.715,3.59333333 1.79666667,3.51166667 1.79666667,3.34833333 L1.79666667,2.85833333 L2.695,2.85833333 L3.10333333,3.51166667 C3.10333333,3.51166667 3.185,3.51166667 3.185,3.51166667 L3.675,3.51166667 L3.185,2.695 C3.43,2.695 3.59333333,2.36833333 3.59333333,2.04166667 Z M1.79666667,1.715 L2.77666667,1.715 C2.94,1.715 3.10333333,1.87833333 3.10333333,2.04166667 C3.10333333,2.28666667 2.94,2.45 2.77666667,2.45 L1.715,2.45 L1.715,1.79666667 C1.715,1.79666667 1.79666667,1.715 1.79666667,1.715 Z" id="Shape"></path>
                <path d="M2.45,0.49 C3.51166667,0.49 4.41,1.38833333 4.41,2.45 C4.41,3.51166667 3.51166667,4.41 2.45,4.41 C1.38833333,4.41 0.49,3.51166667 0.49,2.45 C0.49,1.38833333 1.38833333,0.49 2.45,0.49 Z M2.45,0 C1.06166667,0 0,1.06166667 0,2.45 C0,3.83833333 1.06166667,4.9 2.45,4.9 C3.83833333,4.9 4.9,3.83833333 4.9,2.45 C4.9,1.06166667 3.83833333,0 2.45,0 Z" id="Shape"></path>
            </g>
        </g>
    </g>
</svg>