<svg version="1.1" id="Layer_1" xmlns="http://www.w3.org/2000/svg" xmlns:xlink="http://www.w3.org/1999/xlink" x="0px" y="0px"
	 width="120px" height="120px" viewBox="-30 -30 120 120" enable-background="new -30 -30 120 120" xml:space="preserve">
<title>Professional_Solutions_Partner_vertical</title>
<g id="_Group_">
	<path id="_Compound_Path_" fill="#56565A" d="M1.473,56.236H3.6l1.667,4.472l1.644-4.421H9v7.115H7.394v-5.111l-1.97,4.989H4.893
		L2.91,58.291v4.989H1.473V56.236z"/>
	<path id="_Compound_Path_2" fill="#56565A" d="M14.208,56.236h2.102l2.308,7.118h-1.692l-0.483-1.585H13.87l-0.483,1.585h-1.511
		L14.208,56.236z M14.208,60.623h1.884l-0.93-3.069L14.208,60.623z"/>
	<path id="_Compound_Path_3" fill="#56565A" d="M20.914,59.839v-0.086c-0.075-1.928,1.427-3.549,3.354-3.623
		c0.091-0.004,0.181-0.004,0.271,0c1.542-0.204,2.956,0.882,3.157,2.423c0.003,0.021,0.006,0.044,0.008,0.064h-1.607
		c-0.088-0.755-0.77-1.297-1.526-1.209c-0.007,0-0.014,0-0.021,0c-1.208,0-1.958,0.933-1.958,2.419v0.083
		c0,1.378,0.593,2.419,1.983,2.419c0.818,0.121,1.581-0.441,1.705-1.259c0.017-0.12,0.021-0.242,0.011-0.362h-1.608v-1.207h3.19
		v0.759c0.098,1.66-1.167,3.083-2.826,3.182c-0.174,0.01-0.348,0.004-0.521-0.016c-1.857,0.138-3.474-1.254-3.611-3.11
		C20.903,60.156,20.903,59.996,20.914,59.839z"/>
	<path id="_Compound_Path_4" fill="#56565A" d="M31.05,56.236h4.641v1.209h-3.044v1.668h2.415v1.21h-2.415v1.772h3.19v1.21h-4.834
		L31.05,56.236z"/>
	<path id="_Compound_Path_5" fill="#56565A" d="M38.916,56.236h1.872l2.708,4.688v-4.688h1.438v7.118H43.29l-2.935-5.063v5.063
		h-1.439V56.236z"/>
	<path id="_Compound_Path_6" fill="#56565A" d="M49.73,57.483h-1.922v-1.21h5.463v1.21h-1.923v5.859H49.73V57.483z"/>
	<path id="_Compound_Path_7" fill="#56565A" d="M55.652,59.839v-0.086c-0.064-1.939,1.462-3.564,3.401-3.623
		c0.075-0.004,0.149-0.004,0.222,0c1.906-0.099,3.53,1.371,3.624,3.276c0.006,0.115,0.006,0.232,0,0.347v0.086
		c0,2.021-1.64,3.66-3.661,3.66s-3.66-1.639-3.66-3.66H55.652z M61.294,59.839v-0.086c0-1.377-0.737-2.33-1.98-2.33
		c-1.247,0-1.983,0.906-1.983,2.33v0.086c-0.153,1.129,0.639,2.171,1.769,2.325c0.074,0.012,0.149,0.015,0.226,0.019
		c1.208-0.011,1.97-0.932,1.97-2.367V59.839z"/>
	<path id="_Compound_Path_8" fill="#56565A" d="M-6.611,71.788h1.571c0.072,0.641,0.338,1.208,1.39,1.208
		c0.701,0,1.208-0.387,1.208-0.942c0-0.557-0.302-0.762-1.341-0.931c-1.825-0.242-2.561-0.785-2.561-2.163
		c0-1.376,0.941-2.21,2.513-2.21c1.571,0,2.537,0.711,2.67,2.127h-1.462c-0.05-0.566-0.549-0.982-1.114-0.932
		c-0.032,0.004-0.063,0.008-0.094,0.012c-0.701,0-1.063,0.326-1.063,0.81c0,0.484,0.229,0.749,1.317,0.906
		c1.716,0.22,2.61,0.688,2.61,2.161c-0.07,1.334-1.207,2.358-2.539,2.29c-0.06-0.004-0.12-0.008-0.18-0.016
		C-5.631,74.12-6.526,73.201-6.611,71.788z"/>
	<path id="_Compound_Path_9" fill="#56565A" d="M1.763,70.494v-0.12c-0.062-1.941,1.463-3.563,3.404-3.624
		c0.074-0.002,0.147-0.002,0.22,0c1.907-0.095,3.529,1.372,3.625,3.277c0.006,0.116,0.006,0.229,0,0.347v0.084
		c0.075,1.928-1.427,3.552-3.354,3.626c-0.09,0.002-0.181,0.002-0.271,0c-1.912,0.087-3.535-1.392-3.623-3.306
		C1.76,70.685,1.76,70.59,1.763,70.494z M7.405,70.494v-0.12c0-1.376-0.736-2.331-1.981-2.331c-1.244,0-2.006,0.929-2.006,2.331
		v0.084c-0.146,1.133,0.652,2.167,1.783,2.316c0.082,0.008,0.165,0.017,0.247,0.017c1.196,0,1.957-0.881,1.957-2.309V70.494z"/>
	<path id="_Compound_Path_10" fill="#56565A" d="M12.226,66.896h1.608v5.896h2.875v1.207h-4.483V66.896z"/>
	<path id="_Compound_Path_11" fill="#56565A" d="M19.487,71.233v-4.338h1.62v4.239c0,1.207,0.35,1.703,1.317,1.703
		c0.966,0,1.377-0.458,1.377-1.762v-4.181h1.62v4.274c0.166,1.468-0.886,2.789-2.352,2.956c-0.219,0.026-0.438,0.021-0.657-0.006
		c-1.438,0.175-2.745-0.848-2.92-2.286C19.467,71.635,19.466,71.434,19.487,71.233z"/>
	<path id="_Compound_Path_12" fill="#56565A" d="M30.193,68.149h-1.921v-1.208h5.46v1.208h-1.92v5.849h-1.619V68.149z"/>
	<path id="_Compound_Path_13" fill="#56565A" d="M36.645,66.896h1.618v7.103h-1.618V66.896z"/>
	<path id="_Compound_Path_14" fill="#56565A" d="M41.406,70.494v-0.12c-0.062-1.941,1.463-3.563,3.403-3.624
		c0.073-0.002,0.147-0.002,0.221,0c1.905-0.095,3.53,1.372,3.625,3.277c0.008,0.116,0.008,0.229,0,0.347v0.084
		c0,2.022-1.64,3.662-3.662,3.662s-3.66-1.64-3.66-3.662L41.406,70.494z M47.048,70.494v-0.12c0-1.376-0.737-2.331-1.98-2.331
		c-1.246,0-1.981,0.905-1.981,2.331v0.084c-0.148,1.133,0.65,2.17,1.781,2.316c0.07,0.008,0.141,0.015,0.213,0.017
		c1.207,0,1.956-0.881,1.956-2.309L47.048,70.494z"/>
	<path id="_Compound_Path_15" fill="#56565A" d="M51.855,66.896h1.875l2.705,4.688v-4.688h1.438v7.103h-1.619l-2.959-5.062v5.062
		h-1.44V66.896z"/>
	<path id="_Compound_Path_16" fill="#56565A" d="M60.968,71.788h1.535c0.07,0.641,0.338,1.208,1.389,1.208
		c0.699,0,1.207-0.387,1.207-0.942c0-0.557-0.303-0.762-1.341-0.931c-1.825-0.242-2.561-0.785-2.561-2.163
		c0-1.376,0.979-2.21,2.548-2.21c1.571,0,2.538,0.711,2.671,2.127H64.93c-0.037-0.566-0.527-0.995-1.094-0.957
		c-0.037,0.001-0.074,0.005-0.113,0.013c-0.7,0-1.064,0.327-1.064,0.812c0,0.483,0.23,0.747,1.318,0.904
		c1.716,0.218,2.608,0.689,2.608,2.163c-0.068,1.333-1.205,2.357-2.538,2.289c-0.062-0.005-0.12-0.009-0.179-0.017
		C61.944,74.12,61.052,73.201,60.968,71.788z"/>
	<path id="_Compound_Path_17" fill="#56565A" d="M4.203,77.624H6.62c1.728,0,2.719,0.76,2.719,2.271l0,0
		c0,1.498-1.04,2.224-2.671,2.224H5.834v2.586H4.203V77.624z M6.62,81.03c0.785,0,1.208-0.374,1.208-1.087l0,0
		c0-0.762-0.435-1.052-1.208-1.052H5.834v2.175L6.62,81.03z"/>
	<path id="_Compound_Path_18" fill="#56565A" d="M13.688,77.624h2.103l2.308,7.115h-1.691l-0.483-1.581H13.35l-0.483,1.581h-1.523
		L13.688,77.624z M13.688,82.01h1.885l-0.931-3.179L13.688,82.01z"/>
	<path id="_Compound_Path_19" fill="#56565A" d="M20.962,77.624h2.548c1.68,0,2.744,0.689,2.744,2.164l0,0
		c0.037,0.9-0.581,1.695-1.462,1.883l1.885,3.021h-1.716l-1.704-2.743h-0.701v2.743h-1.595V77.624z M23.463,80.897
		c0.81,0,1.208-0.339,1.208-1.027l0,0c0-0.724-0.435-0.979-1.208-0.979h-0.906v2.042L23.463,80.897z"/>
	<path id="_Compound_Path_20" fill="#56565A" d="M30.918,78.831h-1.91v-1.207h5.463v1.207h-1.924v5.861h-1.63V78.831z"/>
	<path id="_Compound_Path_21" fill="#56565A" d="M37.347,77.624h1.872l2.706,4.689v-4.689h1.439v7.115h-1.62l-2.962-5.062v5.062
		h-1.436V77.624z"/>
	<path id="_Compound_Path_22" fill="#56565A" d="M46.854,77.624h4.64v1.207H48.45v1.668h2.415v1.208H48.45v1.715h3.189v1.21h-4.834
		L46.854,77.624z"/>
	<path id="_Compound_Path_23" fill="#56565A" d="M54.72,77.624h2.55c1.68,0,2.743,0.689,2.743,2.164l0,0
		c0.036,0.9-0.582,1.695-1.462,1.883l1.883,3.021H58.72l-1.704-2.743h-0.699v2.743H54.72V77.624z M57.221,80.897
		c0.811,0,1.209-0.339,1.209-1.027l0,0c0-0.724-0.435-0.979-1.209-0.979h-0.904v2.042L57.221,80.897z"/>
</g>
<g id="_Group_2">
	<g id="Logo">
		<polygon id="_Path_" fill="#F26423" points="30.036,-25.729 -4.049,-6.047 -4.049,33.257 5.678,38.875 5.605,-0.429
			29.963,-14.493 54.322,-0.429 54.322,38.864 64.061,33.257 64.061,-6.084 		"/>
		<polygon id="_Path_2" fill="#F26423" points="34.869,38.875 30,41.692 25.119,38.887 25.119,-0.429 15.392,5.189 15.404,44.494
			29.988,52.915 44.595,44.494 44.595,5.189 34.869,-0.429 		"/>
	</g>
	<g id="_Group_3">
		<polygon id="_Path_3" fill="#BBBBBB" points="67.962,4.319 85,4.319 78.452,12.885 85,20.945 67.962,20.945 		"/>
		<path id="_Path_4" fill="#56565A" d="M67.95,9.647h9.812c-0.266,0-9.812-5.34-9.812-5.34"/>
		<polygon id="_Path_5" fill="#BBBBBB" points="-7.963,4.319 -25,4.319 -18.451,12.885 -25,20.945 -7.963,20.945 		"/>
		<path id="_Path_6" fill="#56565A" d="M-7.952,9.647h-9.81c0.266,0,9.81-5.34,9.81-5.34"/>
		<rect id="_Rectangle_" x="-17.823" y="9.527" fill="#BBBBBB" width="95.584" height="18.631"/>
	</g>
	<g id="_Group_4">
		<path id="_Compound_Path_24" fill="#FFFFFF" d="M-14.21,14.408h2.778c1.958,0,3.07,0.87,3.07,2.562l0,0
			c0,1.704-1.208,2.513-3.021,2.513h-1.028v2.924h-1.812L-14.21,14.408z M-11.48,18.25c0.895,0,1.366-0.422,1.366-1.208l0,0
			c0-0.857-0.496-1.208-1.366-1.208h-0.918v2.417H-11.48z"/>
		<path id="_Compound_Path_25" fill="#FFFFFF" d="M-7.009,14.408h2.875c1.897,0,3.105,0.774,3.105,2.417l0,0
			c0.083,1.025-0.594,1.958-1.595,2.199l2.127,3.42H-2.43l-1.921-3.105h-0.786v3.105h-1.812L-7.009,14.408z M-4.169,18.105
			c0.906,0,1.377-0.387,1.377-1.208l0,0c0-0.822-0.495-1.1-1.377-1.1h-1.027v2.307H-4.169z"/>
		<path id="_Compound_Path_26" fill="#FFFFFF" d="M0.265,18.419L0.265,18.419c-0.069-2.195,1.655-4.028,3.848-4.097
			c0.1-0.003,0.198-0.003,0.296,0.001c2.159-0.128,4.012,1.518,4.14,3.676c0.008,0.124,0.009,0.248,0.005,0.372v0.048
			c0.109,2.179-1.569,4.035-3.748,4.145c-0.137,0.007-0.273,0.007-0.409,0c-2.159,0.124-4.009-1.525-4.133-3.685
			C0.255,18.726,0.255,18.573,0.265,18.419z M6.644,18.419L6.644,18.419c0-1.559-0.833-2.634-2.235-2.634
			c-1.401,0-2.198,0.966-2.198,2.634l0,0c-0.174,1.283,0.725,2.464,2.008,2.638c0.083,0.011,0.167,0.018,0.251,0.02
			C5.834,21.114,6.644,20.075,6.644,18.419z"/>
		<path id="_Compound_Path_27" fill="#FFFFFF" d="M10.172,14.408h5.159v1.425h-3.346v2.127h2.646v1.378h-2.646v3.117h-1.813V14.408z
			"/>
		<path id="_Compound_Path_28" fill="#FFFFFF" d="M16.709,14.408h5.244v1.414h-3.455v1.873h2.742v1.329h-2.742v2.006h3.625v1.414
			h-5.413V14.408z"/>
		<path id="_Compound_Path_29" fill="#FFFFFF" d="M23.149,19.93h1.739c0.084,0.725,0.386,1.316,1.571,1.316
			c0.797,0,1.329-0.434,1.329-1.062s-0.338-0.87-1.522-1.051c-2.054-0.265-2.899-0.894-2.899-2.417c0-1.522,1.147-2.416,2.924-2.416
			c1.775,0,2.863,0.81,3.021,2.416h-1.729c-0.075-0.663-0.673-1.138-1.337-1.063c-0.001,0-0.002,0-0.004,0
			c-0.797,0-1.208,0.375-1.208,0.907c0,0.531,0.254,0.846,1.498,1.026c1.946,0.242,2.949,0.774,2.949,2.417
			c-0.075,1.5-1.35,2.655-2.85,2.581c-0.074-0.004-0.146-0.01-0.22-0.02C24.26,22.576,23.246,21.536,23.149,19.93z"/>
		<path id="_Compound_Path_30" fill="#FFFFFF" d="M30.688,19.93h1.729c0.085,0.725,0.387,1.316,1.571,1.316
			c0.796,0,1.329-0.434,1.329-1.062s-0.338-0.87-1.524-1.051c-2.055-0.265-2.899-0.894-2.899-2.417c0-1.522,1.147-2.416,2.926-2.416
			c1.773,0,2.862,0.81,3.021,2.416h-1.668c-0.076-0.663-0.675-1.138-1.337-1.063c-0.002,0-0.004,0-0.004,0
			c-0.799,0-1.21,0.375-1.21,0.907c0,0.531,0.254,0.846,1.498,1.026c1.945,0.242,2.948,0.774,2.948,2.417
			c-0.074,1.5-1.349,2.655-2.848,2.581c-0.074-0.004-0.147-0.01-0.22-0.02C31.801,22.576,30.785,21.536,30.688,19.93z"/>
		<path id="_Compound_Path_31" fill="#FFFFFF" d="M38.735,14.408h1.837v8.047h-1.837V14.408z"/>
		<path id="_Compound_Path_32" fill="#FFFFFF" d="M42.178,18.419L42.178,18.419c-0.068-2.195,1.655-4.028,3.85-4.097
			c0.098-0.003,0.196-0.003,0.295,0.001c2.159-0.128,4.011,1.518,4.142,3.676c0.008,0.124,0.008,0.248,0.004,0.372v0.048
			c-0.124,2.285-2.076,4.038-4.362,3.914c-2.111-0.114-3.799-1.801-3.913-3.914H42.178z M48.559,18.419L48.559,18.419
			c0-1.559-0.834-2.634-2.236-2.634c-1.4,0-2.234,1.027-2.234,2.646v-0.012c-0.173,1.283,0.724,2.464,2.008,2.638
			c0.084,0.011,0.167,0.018,0.252,0.02C47.7,21.114,48.559,20.075,48.559,18.419z"/>
		<path id="_Compound_Path_33" fill="#FFFFFF" d="M52.086,14.408h2.078l3.057,5.305v-5.305h1.656v8.047h-1.825l-3.359-5.727v5.727
			h-1.606V14.408z"/>
		<path id="_Compound_Path_34" fill="#FFFFFF" d="M62.827,14.408h2.417l2.609,8.047h-1.945l-0.554-1.788h-2.915l-0.554,1.788h-1.68
			L62.827,14.408z M62.827,19.374h2.126l-1.051-3.479L62.827,19.374z"/>
		<path id="_Compound_Path_35" fill="#FFFFFF" d="M69.11,14.408h1.825v6.622h3.274v1.425h-5.1V14.408z"/>
	</g>
</g>
</svg>
