<?xml version="1.0" encoding="UTF-8"?>
<svg width="213px" height="50px" viewBox="0 0 213 50" version="1.1" xmlns="http://www.w3.org/2000/svg" xmlns:xlink="http://www.w3.org/1999/xlink">
    <!-- Generator: Sketch 48.1 (47250) - http://www.bohemiancoding.com/sketch -->
    <title>Shipperhq</title>
    <desc>Created with Sketch.</desc>
    <defs></defs>
    <g id="Mobile" stroke="none" stroke-width="1" fill="none" fill-rule="evenodd" transform="translate(-57.000000, -7852.000000)">
        <g id="ft-services" transform="translate(0.000000, 7647.000000)">
            <g id="Shipperhq" transform="translate(57.000000, 205.000000)">
                <g id="Group" transform="translate(36.182776, 21.502907)" fill-rule="nonzero">
                    <path d="M0.723655523,19.9522166 L4.65207122,17.1609738 C5.58248547,19.0218023 7.13317587,20.0555959 8.890625,20.0555959 C10.4413154,20.0555959 11.5784884,19.0218023 11.5784884,17.5744913 C11.5784884,14.059593 2.37772529,12.612282 2.37772529,6.20276163 C2.37772529,2.58448401 5.4791061,0.10337936 8.78724564,0.10337936 C11.475109,0.10337936 13.4393169,1.34393169 14.6798692,3.30813953 L11.3717297,5.99600291 C10.7514535,5.06558866 9.9244186,4.34193314 8.890625,4.34193314 C7.8568314,4.34193314 7.23655523,5.06558866 7.23655523,6.09938227 C7.23655523,9.09738372 16.4373183,10.6480741 16.4373183,17.3677326 C16.4373183,21.502907 13.3359375,24.5009084 8.890625,24.5009084 C5.4791061,24.5009084 2.37772529,23.0535974 0.723655523,19.9522166 Z" id="Shape" fill="#333333"></path>
                    <polygon id="Shape" fill="#333333" points="31.1171875 24.1907703 31.1171875 13.0257994 23.8806323 13.0257994 23.8806323 24.1907703 18.918423 24.1907703 18.918423 0.310138081 23.8806323 0.310138081 23.8806323 8.58048692 31.1171875 8.58048692 31.1171875 0.310138081 36.0793968 0.310138081 36.0793968 24.1907703"></polygon>
                    <polygon id="Shape" fill="#333333" points="39.5942951 24.1907703 39.5942951 20.1589753 42.5922965 20.1589753 42.5922965 4.34193314 39.5942951 4.34193314 39.5942951 0.310138081 50.4491279 0.310138081 50.4491279 4.34193314 47.4511265 4.34193314 47.4511265 20.1589753 50.4491279 20.1589753 50.4491279 24.1907703 39.5942951 24.1907703"></polygon>
                    <path d="M53.9640262,24.1907703 L53.9640262,0.310138081 L62.6478924,0.310138081 C67.403343,0.310138081 70.4013445,3.30813953 70.4013445,8.16696948 C70.4013445,13.0257994 67.403343,16.0238009 62.6478924,16.0238009 L58.8228561,16.0238009 L58.8228561,24.2941497 L53.9640262,24.2941497 L53.9640262,24.1907703 Z M65.7492733,8.16696948 C65.7492733,5.99600291 64.3019622,4.75545058 61.9242369,4.75545058 L58.8228561,4.75545058 L58.8228561,11.5784884 L61.9242369,11.5784884 C64.3019622,11.5784884 65.7492733,10.337936 65.7492733,8.16696948 Z" id="Shape" fill="#333333"></path>
                    <path d="M73.2959666,24.1907703 L73.2959666,0.310138081 L81.9798328,0.310138081 C86.7352834,0.310138081 89.7332849,3.30813953 89.7332849,8.16696948 C89.7332849,13.0257994 86.7352834,16.0238009 81.9798328,16.0238009 L78.1547965,16.0238009 L78.1547965,24.2941497 L73.2959666,24.2941497 L73.2959666,24.1907703 Z M85.0812137,8.16696948 C85.0812137,5.99600291 83.6339026,4.75545058 81.2561773,4.75545058 L78.1547965,4.75545058 L78.1547965,11.5784884 L81.2561773,11.5784884 C83.6339026,11.5784884 85.0812137,10.337936 85.0812137,8.16696948 Z" id="Shape" fill="#333333"></path>
                    <polygon id="Shape" fill="#333333" points="92.1110102 24.1907703 92.1110102 0.310138081 106.6875 0.310138081 106.6875 4.65207122 96.9698401 4.65207122 96.9698401 9.4075218 103.792878 9.4075218 103.792878 13.7494549 96.9698401 13.7494549 96.9698401 19.8488372 106.6875 19.8488372 106.6875 24.1907703"></polygon>
                    <path d="M109.99564,24.1907703 L109.99564,0.310138081 L118.679506,0.310138081 C123.434956,0.310138081 126.432958,3.30813953 126.432958,8.16696948 C126.432958,11.2683503 125.192406,13.5426962 123.124818,14.7832485 L127.259993,24.1907703 L121.987645,24.1907703 L118.679506,15.9204215 L114.957849,15.9204215 L114.957849,24.1907703 L109.99564,24.1907703 Z M121.780887,8.16696948 C121.780887,5.99600291 120.333576,4.75545058 117.95585,4.75545058 L114.854469,4.75545058 L114.854469,11.5784884 L117.95585,11.5784884 C120.333576,11.5784884 121.780887,10.337936 121.780887,8.16696948 Z" id="Shape" fill="#333333"></path>
                    <polygon id="Shape" fill="#4EC5E0" points="144.524346 24.1907703 144.524346 13.0257994 137.287791 13.0257994 137.287791 24.1907703 132.325581 24.1907703 132.325581 0.310138081 137.287791 0.310138081 137.287791 8.58048692 144.524346 8.58048692 144.524346 0.310138081 149.486555 0.310138081 149.486555 24.1907703"></polygon>
                    <path d="M152.174419,12.1987645 C152.174419,5.4791061 157.653525,0 164.476563,0 C171.196221,0 176.675327,5.4791061 176.675327,12.1987645 C176.675327,15.196766 175.641533,17.8846294 173.884084,20.0555959 L175.848292,22.0198038 L173.160429,24.7076672 L170.989462,22.5367006 C169.128634,23.7772529 166.854288,24.3975291 164.476563,24.3975291 C157.653525,24.5009084 152.174419,19.0218023 152.174419,12.1987645 Z M167.577943,19.228561 L165.510356,17.1609738 L168.198219,14.4731105 L170.369186,16.644077 C171.092842,15.4035247 171.609738,13.9562137 171.609738,12.1987645 C171.609738,7.65007267 168.508358,4.54869186 164.373183,4.54869186 C160.238009,4.54869186 157.136628,7.75345203 157.136628,12.1987645 C157.136628,16.7474564 160.238009,19.9522166 164.373183,19.9522166 C165.510356,19.9522166 166.647529,19.7454578 167.577943,19.228561 Z" id="Shape" fill="#4EC5E0"></path>
                </g>
                <rect id="Rectangle-path" fill="#4EC5E0" fill-rule="nonzero" x="6.71965843" y="25.0178052" width="12.4055233" height="2.06758721"></rect>
                <rect id="Rectangle-path" fill="#4EC5E0" fill-rule="nonzero" x="6.71965843" y="30.1867733" width="12.4055233" height="2.06758721"></rect>
                <rect id="Rectangle-path" fill="#4EC5E0" fill-rule="nonzero" x="6.71965843" y="35.3557413" width="12.4055233" height="2.06758721"></rect>
                <polygon id="Shape" fill="#4EC5E0" fill-rule="nonzero" points="12.9224201 40.5247093 10.337936 40.5247093 10.337936 46.3139535 12.9224201 46.3139535 15.5069041 46.3139535 15.5069041 40.5247093"></polygon>
                <g id="Group" transform="translate(4.135174, 0.000000)" stroke="#F26F21" stroke-linecap="round" stroke-width="0.75">
                    <polyline id="Shape" points="8.78724564 6.61627907 8.78724564 3.51489826 8.78724564 0.413517442"></polyline>
                    <path d="M14.9900073,9.71765988 L11.8886265,9.71765988" id="Shape"></path>
                    <path d="M2.58448401,9.71765988 L5.68586483,9.71765988" id="Shape"></path>
                    <polyline id="Shape" points="16.8508358 5.06558866 14.1629724 6.61627907 11.475109 8.16696948"></polyline>
                    <polyline id="Shape" points="0.723655523 14.3697311 3.4115189 12.8190407 6.09938227 11.2683503"></polyline>
                    <path d="M11.8886265,4.34193314 L10.337936,7.02979651" id="Shape"></path>
                    <path d="M5.68586483,4.34193314 L7.23655523,7.02979651" id="Shape"></path>
                    <polyline id="Shape" points="0.723655523 5.06558866 3.4115189 6.61627907 6.09938227 8.16696948"></polyline>
                    <polyline id="Shape" points="16.8508358 14.3697311 14.1629724 12.8190407 11.475109 11.2683503"></polyline>
                </g>
                <path d="M25.8448401,21.9164244 L25.8448401,19.8488372 C25.0178052,19.8488372 24.2941497,19.1251817 24.2941497,18.2981468 L22.2265625,18.2981468 C22.2265625,19.1251817 21.502907,19.8488372 20.6758721,19.8488372 C19.8488372,19.8488372 19.1251817,19.1251817 19.1251817,18.2981468 L17.0575945,18.2981468 C17.0575945,19.1251817 16.333939,19.8488372 15.5069041,19.8488372 C14.6798692,19.8488372 13.9562137,19.1251817 13.9562137,18.2981468 L13.2325581,10.1311773 L12.612282,10.1311773 L11.8886265,18.2981468 C11.8886265,19.1251817 11.1649709,19.8488372 10.337936,19.8488372 C9.51090116,19.8488372 8.78724564,19.1251817 8.78724564,18.2981468 L6.71965843,18.2981468 C6.71965843,19.1251817 5.99600291,19.8488372 5.16896802,19.8488372 C4.34193314,19.8488372 3.61827762,19.1251817 3.61827762,18.2981468 L1.55069041,18.2981468 C1.55069041,19.1251817 0.827034884,19.8488372 1.77635684e-15,19.8488372 L1.77635684e-15,21.9164244 C0.827034884,21.9164244 1.55069041,22.6400799 1.55069041,23.4671148 C1.55069041,24.2941497 0.827034884,25.0178052 1.77635684e-15,25.0178052 L1.77635684e-15,27.0853924 C0.827034884,27.0853924 1.55069041,27.809048 1.55069041,28.6360828 C1.55069041,29.4631177 0.827034884,30.1867733 1.77635684e-15,30.1867733 L1.77635684e-15,32.2543605 C0.827034884,32.2543605 1.55069041,32.978016 1.55069041,33.8050509 C1.55069041,34.6320858 0.827034884,35.3557413 1.77635684e-15,35.3557413 L1.77635684e-15,37.4233285 C0.827034884,37.4233285 1.55069041,38.146984 1.55069041,38.9740189 C1.55069041,39.8010538 0.827034884,40.5247093 1.77635684e-15,40.5247093 L1.77635684e-15,42.5922965 C0.827034884,42.5922965 1.55069041,43.315952 1.55069041,44.1429869 C1.55069041,44.9700218 0.827034884,45.6936773 1.77635684e-15,45.6936773 L1.77635684e-15,47.7612645 C0.827034884,47.7612645 1.55069041,48.4849201 1.55069041,49.3119549 L3.61827762,49.3119549 C3.61827762,48.4849201 4.34193314,47.7612645 5.16896802,47.7612645 C5.99600291,47.7612645 6.71965843,48.4849201 6.71965843,49.3119549 L8.78724564,49.3119549 C8.78724564,48.4849201 9.51090116,47.7612645 10.337936,47.7612645 C11.1649709,47.7612645 11.8886265,48.4849201 11.8886265,49.3119549 L13.9562137,49.3119549 C13.9562137,48.4849201 14.6798692,47.7612645 15.5069041,47.7612645 C16.333939,47.7612645 17.0575945,48.4849201 17.0575945,49.3119549 L19.1251817,49.3119549 C19.1251817,48.4849201 19.8488372,47.7612645 20.6758721,47.7612645 C21.502907,47.7612645 22.2265625,48.4849201 22.2265625,49.3119549 L24.2941497,49.3119549 C24.2941497,48.4849201 25.0178052,47.7612645 25.8448401,47.7612645 L25.8448401,45.6936773 C25.0178052,45.6936773 24.2941497,44.9700218 24.2941497,44.1429869 C24.2941497,43.315952 25.0178052,42.5922965 25.8448401,42.5922965 L25.8448401,40.5247093 C25.0178052,40.5247093 24.2941497,39.8010538 24.2941497,38.9740189 C24.2941497,38.146984 25.0178052,37.4233285 25.8448401,37.4233285 L25.8448401,35.3557413 C25.0178052,35.3557413 24.2941497,34.6320858 24.2941497,33.8050509 C24.2941497,32.978016 25.0178052,32.2543605 25.8448401,32.2543605 L25.8448401,30.1867733 C25.0178052,30.1867733 24.2941497,29.4631177 24.2941497,28.6360828 C24.2941497,27.809048 25.0178052,27.0853924 25.8448401,27.0853924 L25.8448401,25.0178052 C25.0178052,25.0178052 24.2941497,24.2941497 24.2941497,23.4671148 C24.2941497,22.5367006 25.0178052,21.9164244 25.8448401,21.9164244 Z M22.2265625,45.6936773 L3.61827762,45.6936773 L3.61827762,21.9164244 L22.2265625,21.9164244 L22.2265625,45.6936773 Z" id="Shape" fill="#4EC5E0" fill-rule="nonzero"></path>
                <path d="M12.9224201,10.8548328 C12.612282,10.8548328 12.3021439,10.7514535 12.0953852,10.5446948 C11.8886265,10.337936 11.7852471,10.027798 11.7852471,9.71765988 C11.7852471,9.4075218 11.8886265,9.09738372 12.0953852,8.890625 C12.5089026,8.47710756 13.3359375,8.47710756 13.7494549,8.890625 C13.9562137,9.09738372 14.059593,9.4075218 14.059593,9.71765988 C14.059593,10.027798 13.9562137,10.337936 13.7494549,10.5446948 C13.5426962,10.7514535 13.2325581,10.8548328 12.9224201,10.8548328 Z" id="Shape" fill="#4EC5E0" fill-rule="nonzero"></path>
            </g>
        </g>
    </g>
</svg>